<?xml version="1.0" encoding="utf-8"?>
<!-- Generator: Adobe Illustrator 22.1.0, SVG Export Plug-In . SVG Version: 6.00 Build 0)  -->
<svg version="1.1" id="Calque_1" xmlns="http://www.w3.org/2000/svg" xmlns:xlink="http://www.w3.org/1999/xlink" x="0px" y="0px"
	 viewBox="0 0 64 64" style="enable-background:new 0 0 64 64;" xml:space="preserve">
<style type="text/css">
	.st0{fill:#FF9E18;}
	.st1{fill:#2D2A26;}
	.st2{fill:#A75248;}
	.st3{fill:#F3CFB2;}
</style>
<g id="g1837" transform="translate(-5.784 -10.385)">
	<path id="path1445" class="st0" d="M33.7,73.4c-0.1-0.2-0.2-0.3-0.3-0.5l0,0l-0.3-0.5l0,0l-0.2-0.3l0,0l-0.3-0.5l0,0
		c-0.2-0.3-0.5-0.7-0.7-1l0,0l-0.3-0.3l-0.2-0.2L31.2,70l0,0l0,0L31,69.6l-0.3-0.2l-0.1-0.3L30.4,69l0-0.2l-0.2,0l0-0.2l-0.2,0
		l0-0.2l0,0l-0.2-0.2l-0.3-0.2l-0.2-0.2l0,0l-0.2,0l0-0.2l-0.2,0l0-0.2l-0.3-0.3l0,0l-0.5-0.5c-0.2-0.2-0.4-0.3-0.6-0.5l-0.5-0.4
		l-0.2-0.4L26,64.6v0l-0.2-0.3l0,0l-0.4-0.3l0,0l0,0l0,0l0,0l0,0c-0.2-0.2-0.4-0.4-0.6-0.7l0,0l-0.2-0.3l0,0l0-2.1l0,0l0.2-0.3
		l0.2-0.2l0.3-0.2l0.2-0.2l0.2-0.3v0l0.3-0.4l0.4-0.1v0l0.3-0.3h0l0.1-0.4L27,58l0,0l0.2-0.3l0.1-0.1l0.2-0.3l0,0l0,0l0,0l0.2-0.2h0
		l0,0l0,0l0.3-0.2l0,0l0.2-0.2c-0.5-0.3-1-0.6-1.5-0.9l-0.3-0.2l-0.1-0.1c-0.4,0.4-0.8,0.7-1.1,1.1h0c-0.3,0.3-0.6,0.6-0.9,0.8l0,0
		L24,57.7c-0.2,0.2-0.3,0.5-0.5,0.7l-0.2,0.2l-1.2,0l0,0c-0.1-2.1-0.2-4.2-0.4-6.3l-0.4-0.3c-0.3-0.2-0.6-0.5-0.9-0.7l-0.3-0.3
		c0,1.2,0,2.3,0,3.5c0,1.8-0.1,3.5-0.1,5.3c0,0.9,0,1.8-0.1,2.7l0.3,0.3c0.7,0.7,1.4,1.4,2.1,2.1l0.3,0.3l0.1-0.4
		c0.2,0,0.5,0,0.7-0.1l0.2,0l0.4,0.3l0-0.1l0,0.1l0,0v0c0.2,0.3,0.4,0.6,0.6,0.9l0,0l0.2,0.3l0.1,0.2c0.3,0.3,0.6,0.5,0.9,0.8l0,0
		c0.3,0.3,0.7,0.7,1,1c0.6,0.6,1.1,1.1,1.7,1.7l0,0l0,0c0.1,0.2,0.3,0.4,0.4,0.5l0,0l0.3,0.4l0,0l0.1,0.2c1.3,1,2.7,1.8,4.2,2.4
		L33.7,73.4L33.7,73.4z"/>
	<path id="path1447" class="st0" d="M21.6,30.3c0-0.4,0.2-0.8,0.5-1.2C21.7,29.5,21.6,29.9,21.6,30.3 M21.1,45.1l0.3,0.3
		c-0.1-2.8-0.2-5.6-0.4-8.5c-0.1-1.4,0.2-1.7,1.5-1.7c1,0.2,1.7,0.7,2,1.7l0,0v0l0.2,0.3l0,0l1,1l0,0l0.3,0.3l0,0l0,0l0.3,0.3l0,0
		c0.2,0.3,0.5,0.5,0.7,0.8l0,0l0.4,0.4c1.2,1.4,2.4,2.8,3.6,4.3c0.9,1.1,1.6,2.3,2.4,3.5c0,0.2,0,0.3,0,0.5L33,48.6l0,0l0,0
		l-0.2,0.3l0,0l0,0l0,0l-0.2,0.3l-0.2,0.2l-0.2,0.2l-0.3,0.3l-0.5,0.7l0,0l-0.3,0.3l0,0l-0.2,0.2c0.6,0.2,1.1,0.3,1.7,0.5l0.2,0
		l0.1-0.4l0,0l0.3-0.5c0.5-0.8,1.1-1.5,1.6-2.3l0,0c-0.1-0.2-0.3-0.4-0.5-0.6l0-0.5c-0.9-1.5-1.8-2.9-2.7-4.4
		c-0.3-0.3-0.6-0.7-0.8-1c-1.1-0.5-2.1-1.2-3-2c-0.6-0.5-1.1-1.1-1.6-1.8c-0.4-0.6-0.8-1.2-1.1-1.8c-0.2-0.3-0.3-0.7-0.4-1
		c-0.1-0.4-0.2-0.7-0.3-1.1l0-0.2l-0.2-0.2l-0.2-0.3c-0.2-0.3-0.5-0.6-0.8-1L23,32.1L22.6,32l-0.1-0.4c-0.1-0.8-0.3-1.7-0.4-2.5
		l3.2-3.2c1.1-0.9,2.1-1.9,3.2-2.8c0.5-0.5,1-1,1.5-1.5l0.4-0.4l0.4-0.5c1.4-1.3,2.8-2.6,4.2-3.8c0.7-0.6,1-1,0.5-1.8h0l-0.2-0.3
		l0,0l0,0l-2.1-2.8l-0.3,0.2c-0.2,0.2-0.4,0.3-0.6,0.5l1,1.4c0.6,0.9,0.2,2-0.7,2.9c-2.8,2.6-5.6,5.2-8.3,7.9
		c-0.4,0.4-0.6,1-0.8,1.6c-0.2,0.5-0.3,1.2-1.2,0.8l-0.2-0.3l0,0c-0.1-0.4-0.3-0.8-0.3-1.2l-0.1-2.4c-0.3,0.4-0.7,0.9-1,1.3
		l-0.2,0.3c0,3,0,6.1,0,9.1c0,3.3-0.1,6.6-0.1,9.9l0.3,0.3C20.8,44.7,21,44.9,21.1,45.1"/>
	<path id="path1449" class="st0" d="M30.3,24.9c-1.7,2-2.9,4.2-3.2,6.8c0.5,0.6,1.1,1.2,1.6,1.8c0.6,0.8,1.2,1.6,1.8,2.4l0,0
		l0.1,0.1c1.1,1.4,2.1,2.7,3.2,4.1l0,0c0.3-0.1,0.5-0.3,0.8-0.4c-0.2-1.1-0.3-2.1-0.4-3.1l-0.1-0.1c-1.7-2.5-1.5-5.4,0.2-7.6
		l0.1-3.1c0-0.2,0.1-0.4,0.2-0.6l0,0l0,0c0.2-1.1,0.4-2.3,0.5-3.4C33.4,22.3,31.7,23.4,30.3,24.9"/>
	<path id="path1451" class="st0" d="M17.8,53.8c-0.2-0.3-0.5-0.7-0.7-0.8c-2-0.1-4-0.2-6.1-0.3c0.7,0.9,1.4,1.7,2.1,2.6l0-0.2
		c0.2-0.7,0.3-1.5,1.4-1.3c1,0.2,1,0.9,1,1.7c-0.1,0.7-0.1,1.5-0.1,2.2l0.4,0.4c0.5,0.6,1.1,1.1,1.6,1.7l0.5,0.5
		c0-2.1-0.1-4.2-0.1-6.3L17.8,53.8z"/>
	<path id="path1453" class="st0" d="M10.8,39.7c0.1-0.4,0.4-0.9,0.4-1.3c0-0.6,0.1-1.3,0.1-1.9l-0.4,0c-0.2,0-0.4,0.1-0.6,0.1
		c-0.4,0.1-0.8,0.3-1.1,0.6l-0.1,0.3l-0.2,0c-0.2,0.2-0.4,0.4-0.6,0.7l-0.1,0.2c-0.3,0.5-0.5,1.1-0.8,1.6l-0.2,0.4
		c0.7,0,1.5,0.1,2.2,0.1C9.8,40.4,10.3,39.9,10.8,39.7"/>
	<path id="path1455" class="st0" d="M14.6,44.4c-0.8-1.5-1.3-3.1-1.4-4.8c0-0.2,0-0.5-0.1-0.7v0c-0.1,0.9-0.2,1.8-0.3,2.7l0,0
		l-0.3,0.5c-0.3,0.3-0.6,0.5-0.9,0.7c-0.5,0.2-1.2,0.2-1.8,0.1c-1.1-0.1-2.1-0.2-3.2-0.3c-0.1,1,0,2,0.3,3h7.7
		C14.5,45.1,14.6,44.7,14.6,44.4"/>
	<path id="path1457" class="st0" d="M16.6,33.4l-0.1,0c-0.2,0.9-0.2,1.8-0.1,2.7c0.2,0.1,0.5,0.1,0.8,0.2c0.1,0.4,0.3,0.9,0.2,1.3
		c0,0.7-0.1,1.4-0.2,2.1c0.2,0.4,0.4,0.8,0.6,1.2c0-1.5,0.1-3,0.1-4.5v-0.5c0.1-0.8,0.1-1.5,0.2-2.4c-0.5,0-0.8-0.1-1.2-0.1
		L16.6,33.4z"/>
	<path id="path1459" class="st0" d="M17.9,29.4c-0.1,0.2-0.1,0.3-0.2,0.5c-0.1,0.2-0.2,0.5-0.3,0.7c-0.1,0.2-0.2,0.4-0.2,0.6
		c0.2,0,0.5,0,0.7,0.1L17.9,29.4z"/>
	<path id="path1461" class="st0" d="M17,50.7l0.4-0.1l0.4-0.2l0-0.5l0-0.7v-0.4c-0.4-0.5-0.8-1-1.2-1.4l-0.2,0.3
		c-0.2,0.2-0.5,0.4-0.7,0.6c-0.5,0-1,0-1.5,0c-0.5,0-1,0-1.5,0c-1.6,0-3.2-0.1-4.8-0.1c0.3,0.6,0.7,1.2,1,1.8
		c0.2,0.3,0.4,0.5,0.6,0.8c0.2,0,0.4-0.1,0.6-0.1l0.2,0l1.1-0.1C13.2,50.5,15.1,50.6,17,50.7"/>
	<path id="path1463" class="st0" d="M36.3,52h0.1c0-0.4-0.1-0.9-0.1-1.3L36,50.6c-0.3,0.4-0.7,0.8-1,1.3C35.4,51.9,35.8,52,36.3,52"
		/>
	<path id="path1465" class="st0" d="M30.4,57.8c-0.5,0.7-1,1.3-1.5,2c-1.1,1.4-1.1,2.1,0.2,3.3c1.4,1.3,2.9,2.7,4.3,4l0.3,0.2
		l0.2,0.2l0.2,0.2l0.2,0.2l1.5,1.3c0.4-3.5,0.7-6.8,0.7-10.2c-1.2,0-2.4-0.1-3.6-0.4C32.1,58.4,31.3,58.1,30.4,57.8"/>
	<path id="path1467" class="st0" d="M24.3,42c-0.2-0.2-0.7-0.2-1-0.3c-0.1,0.3-0.3,0.7-0.2,1c0.2,1.5,0.4,3.1,0.6,4.6
		c1.2,0.9,2.5,1.7,3.8,2.4c0.4-0.5,0.9-1.1,1.3-1.6c0.6-0.7,0.5-1.1-0.1-1.7C27.2,44.9,25.8,43.4,24.3,42"/>
	<path id="path1469" class="st0" d="M25.6,19.2c1.2-1.1,2.5-2.1,3.6-3.3c0.3-0.3,0.6-0.9,0.6-1.2c-0.6,0.5-1.1,1-1.7,1.5
		c-1.5,1.5-3,3.1-4.4,4.7l0.1,0.3C24.5,20.5,25,19.8,25.6,19.2"/>
	<path id="path1517" class="st1" d="M50.1,60.7c0.7,0.7,1.5,1.4,2.2,2.1c0.3,0.3,0.3,0.8,0.5,1.2c-0.4-0.1-0.8-0.2-1.1-0.4
		c-0.8-0.8-1.6-1.6-2.4-2.4c-0.5-0.5-0.5-0.9,0.1-1.4c0.7-0.6,1.4-1.4,2.1-2c0.4-0.3,0.9-0.4,1.4-0.6l0.1,0.5
		C52.1,58.5,51.2,59.5,50.1,60.7 M48.6,66.3c0.2-0.2,0.3-0.5,0.5-0.7l0-0.3c-1.3-1.5-2.6-3-3.9-4.4c-0.5-0.5-0.3-1,0.2-1.4
		c0.9-0.7,1.7-1.4,2.5-2.1h0l0,0l0.3-0.3l0.2-0.1c0.6-0.3,1.2-0.5,1.7-0.8c0.4,1-0.6,1.2-1,1.7c-0.9,0.8-1.8,1.6-2.8,2.4
		c1.1,1.4,2.1,2.7,3.1,4c0.2,0.3,0.2,0.7,0.3,1.1l0,0c-0.2,0-0.4,0-0.6,0l0,0.3C48.9,65.8,48.7,66.1,48.6,66.3z M55.7,49.7l0.6-0.7
		l0.6,0.1l0.2,0.2l0.1,0.6c-0.6,0.6-1.1,1.2-1.7,1.7c-0.3,0.2-0.7,0.1-1.1,0.1C54.7,51,55.2,50.3,55.7,49.7 M57.1,52.7
		c-0.3,0-0.7,0.1-1.4,0.1c0.3-0.7,0.6-1.1,0.8-1.5c0.4,0.4,0.7,0.8,1.1,1.2L57.1,52.7z M52.9,28.7c-0.5-0.6-0.4-0.9,0.2-1.4
		c0.6-0.4,1.1-1,1.6-1.4l0.3-0.2l0.1,0l0.1,0c0.7,1.6-1.1,1.6-1.7,2.9c0.4,0.2,0.9,0.5,1.3,0.9c0.2,0.2,0.3,0.6,0.4,0.9l-0.8,0.2
		l-0.1-0.1C53.9,29.9,53.4,29.3,52.9,28.7 M56.1,29.3c-0.9-1.2-0.8-1.7,0.5-2c0.2,0,0.5,0,0.6,0c0.1,0.7,0.3,1.3,0.2,2
		c0,0.1-0.7,0.2-1,0.3L56.1,29.3z M36.8,70.3l0.2-0.5h-0.2H37L36.8,70.3z M39.4,69l0.3-0.5l0.4,0l0.1,0l0.3,0
		c0.5,0.2,0.4,0.9,0.5,1.6c-0.7-0.3-1.3-0.5-1.8-0.6l0,0l0,0l0-0.1L39.4,69z M43.4,65l0.2,0.2c0.3,0.3,0.7,0.6,1,1
		c0.2,0.4,0.2,0.8,0.3,1.3c-0.2,0-0.5-0.1-0.7-0.1l-0.3-0.2l-0.5-0.5c-0.5-0.3-0.9-0.7-1.4-1l0,0l-0.3-0.2l0,0l0,0l0,0l0,0l-0.3-0.2
		L41,64.7c-0.3-0.3-0.7-0.6-1-0.9l0-0.1l0-0.1l0-0.3l0,0l0,0l0.3-0.4l0,0c0.5,0.4,1.1,0.7,1.6,1.1l0.2,0.1
		C42.5,64.4,42.9,64.7,43.4,65 M42.2,69c-0.5-0.4-1-0.7-1.5-1.1c-0.3-0.3-0.6-0.7-0.8-1.1c-0.1-0.1-0.1-0.3-0.1-0.5
		c0.2-0.1,0.4-0.2,0.6-0.3l0,0l0,0l0.1,0c0.2,0.2,0.4,0.5,0.6,0.7l0.3,0.2l0.2,0.2l0.3,0.3l0.7,0.7l0,0.5L42.2,69z M41.4,12.8
		c-0.3,0.5-0.8,0.9-1.2,1.2c-0.1,0-0.5-0.4-0.8-0.7l0.2-0.4v-0.5l0-0.1l-0.1,0c0-0.2,0-0.5,0-0.7c0.5,0.1,0.9,0.2,1.3,0.4
		C41.1,12.2,41.4,12.8,41.4,12.8 M62.5,54.1c0-0.3,0-0.7,0-1l-0.2,0l0.2,0l0.1-0.5l-0.1-0.7l0.1-0.5l-0.1,0c0-0.2,0-0.5,0-0.7
		c-0.1-0.4-0.1-0.8-0.2-1.3l-0.1-0.5c-0.2-1.1-0.4-2.1-0.6-3.2l0-0.5c0-0.3,0-0.6,0-1c0-0.2,0-0.5-0.1-0.7l-0.1,0l-0.1,0l0-0.2
		l-0.2-4.2l0-1c0-0.2,0-0.5,0-0.7c0-0.7,0-1.3,0-1.9c0.1-1.6,0.3-3.1,0.4-4.7l0.1-0.7c0.1-0.3,0.1-0.7,0.2-1l0,0c-1-1.1-2-2.2-3-3.3
		c-2.2-2.3-4.4-4.6-6.7-6.8l-0.3-0.2l0-0.1c-0.2-0.2-0.3-0.3-0.5-0.5c-0.3-0.2-0.5-0.5-0.8-0.7c-0.2,0.1-0.4,0.3-0.5,0.4l-0.4,0.3
		l-0.1,0c-0.3-0.2-0.6-0.3-0.9-0.5c0.2-0.3,0.3-0.6,0.6-0.8l0.3-0.3c-0.2-0.2-0.4-0.4-0.6-0.6c-0.3,0.4-0.6,0.7-1,1.1
		c-0.3,0-0.7-0.1-1-0.1c0.2-0.5,0.5-0.9,0.7-1.4l0.1-0.2l0.2-0.2c-0.4-0.3-0.8-0.7-1.2-1l-0.2-0.1c-0.2,0.2-0.4,0.5-0.5,0.7h0
		l-0.3,0.2l-0.2,0.2c-0.1,0.1-0.3,0.3-0.5,0.4c-0.4,0.1-0.7,0.2-1.1,0.3c0.1-0.3,0.2-0.7,0.4-1c0.3-0.4,0.7-0.7,1-1l0.2-0.2l0.2-0.2
		l-0.2-0.1c-0.4-0.3-0.8-0.6-1.2-0.8l-0.1-0.1l0,0.1l-0.3,0.5l-0.2,0.3l-0.7,0.7l-1,1.1l-0.4-0.1l0-0.1l-0.1,0l-0.4-0.4l0.3-0.2
		c0.5-0.6,1.1-1.2,1.6-1.8c-0.3-0.7-1.3-0.9-1.6-1.7c-0.2-0.1-0.3-0.1-0.5-0.2c-0.9-0.3-1.9-0.5-2.8-0.5c-0.6,0-1.3,0.2-1.9,0.3
		c-0.2,0.1-0.5,0.1-0.7,0.2c-0.5,0.2-1,0.3-1.4,0.6c-0.3,0.2-0.7,0.4-1,0.6c0.7,0.9,1.4,1.9,2.1,2.8l0,0l0,0l0.2,0.3h0
		c0.5,0.8,0.2,1.2-0.5,1.8c-1.5,1.2-2.8,2.5-4.2,3.8l-0.4,0.5L30,21.6l0.4-0.4c0.2-0.2,0.4-0.3,0.6-0.5c0.3-0.3,0.6-0.5,1-0.8
		c0.3-0.2,0.7-0.5,1-0.7c0.2-0.1,0.4-0.2,0.6-0.3c0.2-0.1,0.5-0.2,0.7-0.4c1.5-0.6,3-0.9,4.5-0.7c0.2,0,0.5,0.1,0.7,0.1l0.5,0.1
		c0.2,0,0.4,0.1,0.6,0.2c0.2,0.1,0.5,0.1,0.7,0.2l0.2,0.1l0,0c2,0.8,3.7,2.1,5.3,3.6l0,0l0.3,0.3l0.5-0.3c0.1,0.2,0.3,0.4,0.5,0.5
		c0,0.2,0,0.4-0.1,0.6c0.3,0.3,0.6,0.6,0.9,0.9l0.1-0.1c0.3-0.3,0.8-0.3,1.3-0.4c-0.1,0.3-0.1,0.6-0.2,0.9l-0.3,0.2l-0.2,0.2
		c0.3,0.4,0.6,0.8,0.9,1.1l0,0v0c0.4-0.4,0.8-0.8,1.3-1.1c0.3-0.2,0.7-0.2,1.1-0.2c-0.1,0.4-0.1,0.8-0.3,1c-0.4,0.4-0.9,0.8-1.4,1.3
		l0.1,0.1c0.9,1.2,1.7,2.5,2.5,3.9c0.1,0.2,0.2,0.4,0.3,0.5c0.1,0.2,0.2,0.3,0.3,0.5l0.2,0.3l0,0c0.2,0.5,0.5,1.1,0.7,1.6l0.1,0.3
		c0.1,0.4,0.3,0.8,0.4,1.2c0.2,0.1,0.3,0.2,0.5,0.3l0,0l0,0l0,0l0,0c-0.4-0.7-0.5-1.3,0.4-2c0.3,0.4,0.8,0.9,0.8,1.1
		c-0.2,0.4-0.7,0.6-1.1,0.9l0,0l0,0c0.2,0.2,0.3,0.5,0.5,0.7L56,37.4c0.1,0.4,0.1,0.7,0.2,1.1l0.1,0.5c0,0.3,0.1,0.6,0.1,0.9l0,0
		c0.1,0.2,0.2,0.4,0.2,0.6l-0.3,0c0,0.2,0,0.4,0,0.6c0,0.5-0.1,1-0.2,1.4L56,42.8l0.4,0.5l0.2,0.3c0,0.3,0,0.6-0.1,0.9
		c-0.3,0.1-0.7,0.1-1,0.3c-0.3,0.9-0.7,1.8-1.2,2.6c0.7-0.5,1.4-1,2.1-1.6c0.1,0.3,0.3,0.6,0.5,0.9c-0.3,0.3-0.7,0.7-1,1h0l-0.3,0.3
		l-0.4,0.3c-0.5,0.4-1.1,0.9-1.6,1.3c-0.3,0.1-0.7,0.3-1,0.4l-0.4,0.5c-0.3,0.3-0.5,0.6-0.8,0.9c-0.5,0.5-0.9,1-1.4,1.5
		c-0.6,0.6-1.3,1.2-2,1.7l-0.1,0.1l-0.1,0c0,0.3,0,0.6,0,0.9l-0.2,0.2L47.3,56l-0.2,0.2l-0.3,0.3l-0.2,0.1c-0.2,0.2-0.5,0.4-0.7,0.6
		l-0.3,0.2c-1.2,1.1-2.4,2.2-3.5,3.3c1.9,1.4,3.7,2.7,5.4,4c0.3,0.2,0.5,0.7,0.7,1.1l-1.3-0.1l-0.5-0.4c-0.3-0.2-0.7-0.4-1-0.6
		c-0.7-0.5-1.4-1-2.2-1.6L43,63.1c-0.4-0.3-0.8-0.5-1.2-0.8c-0.4-0.3-0.8-0.5-1.2-0.8c-0.2-0.2-0.3-0.6-0.4-0.8c0.3-0.3,0.7-0.6,1-1
		c0.3-0.3,0.7-0.6,1-0.9c0.7-0.6,1.5-1.3,2.2-1.9c-1.4,0.8-2.8,1.4-4.4,1.8c-0.3,0.1-0.7,0.2-1,0.2l-0.1,0c-0.3,0.1-0.7,0.1-1,0.1
		c-0.2,0-0.4,0-0.7,0.1c-0.2,0-0.5,0-0.7,0c-0.1,3.4-0.3,6.7-0.7,10.2L34.4,68l-0.2-0.2l-0.2-0.2l-0.2-0.2l-0.3-0.2
		c-1.4-1.3-2.9-2.7-4.3-4c-1.3-1.2-1.3-1.9-0.2-3.3c0.5-0.6,1-1.3,1.5-2c-0.2-0.1-0.4-0.1-0.5-0.2c-0.3-0.2-0.7-0.3-1-0.5
		c-0.2-0.1-0.5-0.2-0.7-0.4L28,56.8l0,0l-0.3,0.2l-0.2,0.2l-0.2,0.3l-0.1,0.1L27,58.1l0,0l-0.3,0.5l-0.1,0.4h0l-0.3,0.3v0l-0.4,0.1
		l-0.3,0.4v0L25.5,60l-0.2,0.2L25,60.5l-0.2,0.2L24.6,61l0,0l0,2.1l0,0l0.2,0.3l0,0c0.2,0.2,0.4,0.4,0.6,0.7l0.4,0.3l0,0l0.2,0.3v0
		c0.2,0.2,0.4,0.4,0.6,0.6l0.2,0.4c0.2,0.1,0.4,0.2,0.5,0.4c0.2,0.2,0.4,0.3,0.6,0.5l0.5,0.5l0,0l0.3,0.3l0,0.2l0.2,0l0,0.2l0.2,0
		l0,0l0.2,0.2l0.3,0.2l0.2,0.2l0,0l0,0.2l0.2,0l0,0.2l0.2,0l0,0.2l0.2,0.1l0.1,0.3l0.3,0.2l0.2,0.4c0,0,0,0,0,0l0,0l0.3,0.3l0.2,0.2
		l0.3,0.3l0,0c0.2,0.3,0.5,0.7,0.7,1l0,0l0.3,0.5l0,0l0.2,0.3l0,0l0.3,0.5l0,0c0.1,0.2,0.2,0.3,0.3,0.5l0,0l0.2,0.2l0.3,0.1
		c0.3,0.1,0.7,0.2,1.1,0.3c0.5,0.1,1,0.2,1.5,0.3l0.4,0c0.6,0,1.1,0,1.6-0.1c1.4-0.2,2.7-0.8,3.9-1.5c0.3-0.2,0.6-0.3,0.8-0.5
		l0.3-0.2c1.9-1.2,3.7-2.7,5.4-4.2c0.5-0.4,1-0.9,1.4-1.3c0.4-0.4,0.8-0.8,1.3-1.2c0.2-0.2,0.4-0.4,0.6-0.6c0.7-0.6,1.3-1.3,2-2
		c-0.2-0.3-0.5-0.6-0.7-0.9c-0.3-0.3-0.6-0.6-0.7-0.9c-0.1-0.3,0-1,0-1c1.1-0.2,1.2-2.1,2.7-1.4l0,0.4c-0.6,0.6-1.2,1.1-1.9,1.8
		c0.4,0.4,0.9,0.8,1.3,1.3L55,62l0.8-0.9c-0.1-0.2-0.3-0.4-0.4-0.6c0.5-0.3,1-0.7,1.6-1l0.2,0.2c0.2-0.2,0.3-0.3,0.5-0.5
		c1.2-1.3,2.5-2.7,3.8-4l0.2-0.2c0.2-0.2,0.3-0.3,0.5-0.5C62.2,54.4,62.4,54.3,62.5,54.1"/>
	<path id="path1519" class="st1" d="M24.7,29.4l0.1-0.2c0.5-1.4,1.2-2.8,2.1-4c0.1-0.2,0.2-0.3,0.4-0.5c0.4-0.5,0.9-1.1,1.3-1.6
		c-1.1,0.9-2.1,1.9-3.2,2.8l-3.2,3.2c0.1,0.8,0.3,1.7,0.4,2.5l0.1,0.4l0.4,0.1l0.1,0.4c0.2,0.3,0.5,0.6,0.7,1l0.2,0.3l0.2,0.2
		c-0.1-0.5-0.1-1-0.1-1.6c0-0.2,0-0.4,0-0.6C24.3,30.9,24.5,30.2,24.7,29.4"/>
	<path id="path1521" class="st1" d="M17.8,48.8v0.4l0,0.7l0,0.5l-0.4,0.2L17,50.7c-1.9,0-3.8-0.1-5.7-0.2l-1.1,0.1l-0.2,0
		c-0.2,0-0.4,0.1-0.6,0.1c0.5,0.7,1,1.4,1.5,2c2.1,0.1,4.1,0.2,6.1,0.3c0.3,0,0.5,0.5,0.7,0.8l0,0.2c0,2.1,0.1,4.2,0.1,6.3
		c0.7,0.8,1.5,1.5,2.2,2.2c0-0.9,0-1.8,0.1-2.7c0-1.8,0.1-3.5,0.1-5.3c0-1.2,0-2.3,0-3.5c-0.3-0.3-0.7-0.6-1-0.9
		C18.7,49.7,18.3,49.3,17.8,48.8"/>
	<path id="path1523" class="st1" d="M14.5,53.8c-1.1-0.2-1.2,0.6-1.4,1.3l0,0.2c0.7,0.8,1.4,1.6,2.1,2.3l0.1,0.1
		c0-0.7,0.1-1.5,0.1-2.2C15.5,54.7,15.5,54,14.5,53.8"/>
	<path id="path1525" class="st1" d="M17.9,31.3c-0.3,0-0.5,0-0.7-0.1c-0.1,0.4-0.3,0.8-0.4,1.2c-0.1,0.3-0.2,0.7-0.2,1l0.1,0l0.3,0
		c0.4,0,0.7,0.1,1.2,0.1c-0.1,0.9-0.1,1.6-0.2,2.4v0.5c0,1.5,0,3-0.1,4.5c0.5,0.9,1.2,1.8,1.9,2.6c0.2,0.2,0.4,0.4,0.6,0.6
		c0-3.3,0.1-6.6,0.1-9.9c0-3,0-6.1,0-9.1c-0.9,1.4-1.8,2.8-2.5,4.2V31.3z"/>
	<path id="polygon1527" class="st1" d="M9.1,37.4l0.1-0.3l-0.4,0.3L9.1,37.4z"/>
	<path id="path1529" class="st1" d="M14.2,48.2c0.5,0,1,0,1.5,0c0.2-0.2,0.5-0.4,0.7-0.6l0.2-0.3c-0.3-0.4-0.6-0.8-0.9-1.2
		c-0.4-0.5-0.7-1.1-1.1-1.7c0,0.3-0.1,0.7-0.1,1.1H6.9l0,0.1c0.2,0.9,0.6,1.7,1,2.5c1.6,0,3.2,0.1,4.8,0.1
		C13.2,48.2,13.7,48.2,14.2,48.2"/>
	<path id="path1531" class="st1" d="M11.6,42.7c0.3-0.1,0.6-0.3,0.9-0.7l0.3-0.5l0,0c0.1-0.9,0.2-1.8,0.3-2.7v0
		c-0.1-0.6-0.3-1.2-0.4-1.8c-0.5-0.4-0.9-0.6-1.4-0.7c0,0.6-0.1,1.3-0.1,1.9c0,0.5-0.3,0.9-0.4,1.3c-0.5,0.3-1,0.8-1.5,0.8
		c-0.7,0-1.5-0.1-2.2-0.1c-0.3,0.7-0.5,1.4-0.6,2.2c1.1,0.1,2.1,0.2,3.2,0.3C10.4,42.9,11.1,42.9,11.6,42.7"/>
	<path id="path1533" class="st1" d="M17.3,39.8c0.1-0.7,0.1-1.4,0.2-2.1c0-0.4-0.2-0.9-0.2-1.3c-0.3-0.1-0.6-0.2-0.8-0.2
		c0,0.6,0.1,1.1,0.3,1.7C16.8,38.6,17,39.2,17.3,39.8"/>
	<path id="path1535" class="st1" d="M34.6,39.8L34.6,39.8c0.2-0.3,0.4-0.5,0.4-0.7c0.1-0.3,0.1-0.7,0-1c-0.1-0.2-0.1-0.4-0.3-0.6
		l-0.1-0.2c-0.1-0.2-0.2-0.4-0.4-0.6C34.3,37.7,34.5,38.7,34.6,39.8"/>
	<path id="path1537" class="st1" d="M34.5,28.9L34.5,28.9c0.2-0.3,0.4-0.5,0.7-0.7c1.4-1.3,2.9-1.8,4.5-1.5l0.2,0
		c0.4,0.1,0.9,0.3,1.3,0.5l0.4-0.4l0.1-0.1c1-0.8,1.9-1.6,2.9-2.4c-0.4-0.3-0.8-0.6-1.2-0.9c-0.9,0.7-1.8,1.5-2.7,2.2l-0.2-0.1
		l-0.3-0.3l0-0.4l0.8-0.8l0.4-0.3l0.2-0.2l0.3-0.2l0.3-0.2l0.2-0.2l0.1-0.1c-0.3-0.2-0.7-0.4-1-0.5c-0.3-0.1-0.5-0.2-0.8-0.3l-0.2,0
		l0,0L40.2,22c-0.4-0.1-0.7-0.2-1.1-0.2l-0.3,0c-0.3,0-0.6-0.1-1-0.1c-0.4,0-0.7,0-1.1,0c-0.2,0-0.4,0-0.6,0.1l-0.3,0.1
		c-0.2,0-0.3,0.1-0.5,0.1c-0.2,1.1-0.4,2.3-0.5,3.4l0,0l0,0c-0.1,0.2-0.2,0.4-0.2,0.6C34.5,26.8,34.5,27.9,34.5,28.9"/>
	<path id="path1539" class="st1" d="M30.6,36.1L30.6,36.1L30.6,36.1c-0.7-0.9-1.2-1.7-1.8-2.5c-0.5-0.6-1.1-1.2-1.6-1.8v0
		c0,0.6-0.1,1.3,0,1.9c0.2,2,1.1,3.6,2.6,4.9c0.2,0.2,0.5,0.4,0.8,0.6c0.2,0.1,0.4,0.2,0.6,0.3c0.3,0.1,0.6,0.3,0.9,0.4
		c0.3,0.1,0.7,0.2,1.1,0.3c0.2,0,0.3,0.1,0.5,0.1l0.3-0.1l0,0C32.8,38.8,31.7,37.4,30.6,36.1"/>
	<path id="path1541" class="st1" d="M32.8,42.7c-0.4-0.1-0.7-0.3-1.1-0.4c-0.3-0.1-0.6-0.3-0.9-0.4c0.3,0.3,0.6,0.7,0.8,1
		c0.9,1.5,1.8,2.9,2.7,4.4l0,0.5c0.1,0.2,0.3,0.4,0.5,0.6l0,0c-0.5,0.8-1.1,1.5-1.6,2.3l-0.3,0.5v0l-0.1,0.4l0,0
		c0.5,0.1,1,0.2,1.6,0.3c0.2,0,0.4,0,0.6,0l1-1.3l0.3,0.1c0,0.4,0.1,0.9,0.1,1.3h0.4c0.4,0,0.9,0,1.3,0c0.5,0,0.9-0.1,1.4-0.2l0-0.1
		c0.4-0.1,0.9-0.7,1.3-0.2l0.1,0c0.3-0.1,0.7-0.2,1-0.3c2-0.7,3.9-1.7,5.5-3.1l-0.4-0.1c0.3-0.6,0.5-1.1,0.8-1.7l0,0l0.2-0.3
		l0.5-0.7c0.7-0.7,1.3-1.4,2.1-2.2c-1.1-1-2.2-1.8-3.2-2.8c-0.4-0.3-0.6-0.8-0.9-1.3l0.3-0.3l0.2,0l0.5,0.2c0.7,0.6,1.3,1.1,2,1.7
		c0.7,0.6,1.3,1.1,1.9,1.7c0.2-0.4,0.3-0.9,0.4-1.4c-0.8-0.7-1.5-1.5-2.2-2.2c-0.3-0.3-0.4-0.9-0.6-1.3l0.5-0.1
		c0.9,0.7,1.7,1.4,2.6,2.1c0-0.5,0.1-1.1,0-1.6L52,37.7c-0.3-0.3-0.3-0.8-0.5-1.3l0,0l0,0l0.3-0.2l0,0l0,0l0.3,0.2l0-0.2
		c-0.1-0.5-0.2-1.1-0.3-1.6c-0.2-0.8-0.5-1.5-0.8-2.3c-0.2-0.4-0.4-0.9-0.6-1.3c-0.2-0.3-0.3-0.6-0.5-0.9C49.1,29,48.2,28,47.3,27
		c-0.3,0.3-0.7,0.6-1,0.8c1.2,1.6,2.4,3,3.5,4.5c-0.2,0.2-0.4,0.4-0.5,0.6c-0.4-0.3-0.8-0.6-1.1-0.9c-1.2-1.4-2.4-2.8-3.5-4.3
		c0.6-0.5,1.2-1,1.8-1.6c-0.2-0.2-0.5-0.5-0.7-0.7l-0.1-0.1c-1.1,0.9-2.2,1.8-3.3,2.7c0.7,0.6,1.3,1.2,1.9,2
		c1.1,0.8,2.1,1.5,3.1,2.3c0.4,0.3,0.5,0.8,0.7,1.2c-0.5-0.1-1-0.2-1.5-0.4c-0.2-0.1-0.3-0.2-0.5-0.3c-0.2-0.1-0.3-0.2-0.5-0.3
		c0.4,1.3,0.6,2.6,0.4,3.9c0,0.4-0.1,0.7-0.2,1.1L45.7,38l0,0c-0.2,0.6-0.4,1.2-0.7,1.8c-0.1,0.2-0.2,0.3-0.3,0.5
		c1,0.8,2.1,1.7,3,2.6c0.2,0.2-0.2,1.2-0.5,1.6c-0.3,0.4-0.6,0.8-1,1.1c-0.4,0.3-0.7,0.7-1.1,1v0L44.6,47c-0.2-0.2-0.5-0.3-0.8-0.5
		L44,46l0.4-0.3c0.8-0.7,1.6-1.5,2.5-2.3c-0.3-0.3-0.6-0.5-0.8-0.7c-0.2-0.2-0.4-0.4-0.6-0.6l0,0L45,41.8l-0.7-1
		c-0.2,0.2-0.4,0.4-0.6,0.6c-0.2,0.2-0.5,0.4-0.8,0.6l0.2,0.2l0.3,0.2l0,0l0.5,0.3l0.3,0.2l0.2,0.3c-0.4,0.6-0.8,1.3-1.2,1.9h0
		l-0.2,0.3l-0.1,0.1c-0.4,0.2-0.8,0.4-1.2,0.6l-0.2-0.2l0-0.5c0.4-0.4,0.8-0.8,1.2-1.2c0.5-0.5,0.3-0.8-0.2-1.3l-0.4-0.4
		c-0.3,0.1-0.6,0.3-1,0.4l-0.3,0.1l0.4,0.3c0.1,0-0.2,0.8-0.4,1.2c-0.1,0.2-0.4,0.4-0.5,0.6c-0.3-0.2-0.5-0.4-0.8-0.6l-0.3-0.2
		c0.1-0.3,0.1-0.6,0.2-0.9l0-0.1c-1.2,0.2-2.5,0.3-3.7,0.1c-0.4,0-0.9-0.1-1.3-0.2c-0.5-0.1-1-0.3-1.5-0.4L32.8,42.7z"/>
	<path id="path1543" class="st1" d="M29.4,71L29.4,71l-0.3-0.4l0,0c-0.1-0.2-0.3-0.4-0.4-0.5c-0.6-0.6-1.1-1.1-1.7-1.7
		c-0.3-0.3-0.7-0.7-1-1c-0.3-0.3-0.6-0.5-0.9-0.8L25,66.4l-0.2-0.3l0,0c-0.2-0.3-0.4-0.6-0.6-0.9v0l-0.4-0.3l-0.2,0
		c-0.2,0-0.5,0-0.7,0.1l-0.1,0.4c1.7,1.7,3.5,3.3,5.4,4.8c0.5,0.4,0.9,0.7,1.4,1.1L29.4,71z"/>
	<path id="polygon1545" class="st1" d="M24.2,65.3L24.2,65.3L24.2,65.3L24.2,65.3z"/>
	<path id="polygon1547" class="st1" d="M28.7,70.1L28.7,70.1L28.7,70.1L28.7,70.1z"/>
	<path id="path1549" class="st1" d="M23,42.6c0-0.3,0.1-0.6,0.2-1c0.3,0.1,0.8,0.1,1,0.3c1.5,1.4,2.9,2.9,4.4,4.4
		c0.6,0.6,0.6,1,0.1,1.7c-0.4,0.5-0.9,1.1-1.3,1.6c0.6,0.3,1.2,0.6,1.9,0.9c0.5,0.2,1,0.4,1.6,0.6l0.2-0.2l0,0l0.3-0.3l0,0l0.5-0.7
		l0.3-0.3l0.2-0.2l0.2-0.2l0.2-0.3l0,0l0.2-0.3l0,0l0,0l0.2-0.4c0-0.2,0-0.3,0-0.5c-0.8-1.2-1.5-2.4-2.4-3.5
		c-1.1-1.5-2.4-2.9-3.6-4.3l-0.4-0.4l0,0c-0.2-0.3-0.5-0.5-0.7-0.8l0,0l-0.3-0.3l0,0l-0.3-0.3l0,0l-1-1l0,0l-0.2-0.3l0,0
		c-0.3-1-1-1.5-2-1.7c-1.3-0.1-1.5,0.2-1.5,1.7c0.1,2.8,0.2,5.6,0.4,8.5c0.7,0.7,1.4,1.3,2.2,1.9C23.4,45.7,23.2,44.2,23,42.6"/>
	<path id="polygon1551" class="st1" d="M32.8,48.9L32.8,48.9L32.8,48.9L32.8,48.9z"/>
	<path id="path1553" class="st1" d="M23.5,58.5c0.2-0.2,0.3-0.5,0.5-0.7l0.3-0.2l0,0c0.3-0.3,0.6-0.6,0.9-0.8h0
		c0.4-0.4,0.8-0.7,1.1-1.1c-1.6-1-3.1-2-4.5-3.2c0.1,2.1,0.2,4.2,0.4,6.3l0,0l1.2,0L23.5,58.5z"/>
	<path id="polygon1555" class="st1" d="M25.4,64L25.4,64L25.4,64L25.4,64z"/>
	<path id="polygon1557" class="st1" d="M25.4,64L25.4,64L25.4,64z"/>
	<path id="polygon1559" class="st1" d="M27.5,57.3L27.5,57.3L27.5,57.3L27.5,57.3z"/>
	<path id="polygon1561" class="st1" d="M27.8,57L27.8,57L27.8,57L27.8,57z"/>
	<path id="path1563" class="st1" d="M68.9,40.7c-0.2-1.4-0.7-2.8-1.4-4l-0.2-0.3c-0.1,0.2-0.3,0.5-0.5,0.5c-0.3,0-0.6-0.2-0.8-0.5
		c-0.2-0.2-0.2-0.5-0.3-0.8c-0.2,0-0.4,0-0.5,0L65,35.7c-0.4,0.4-0.8,0.8-1.2,1.2l-0.2,0.3l-0.2,0.2L63,37.6l-0.3,0.3l-0.2,0.2
		l-0.2,0.3c0.9,1.1,1.8,2.2,2.7,3.2c0.1,0.1,0.9-0.3,0.9-0.6c0.2-0.8,0.6-0.8,1.2-0.6c0,0.3,0.1,0.5,0.1,0.8c0.4,2.9,0.4,3-2.5,2.9
		l-0.5,0c-0.5,0.1-1,0.2-1.5,0.2l-0.4,0.5c0,0.2,0,0.5,0.1,0.7c0,0.2,0,0.5,0.1,0.7c0.1,0.5,0.3,1.1,0.5,1.6c0.2,0,0.5,0,0.7-0.1
		l3.7-0.2C68.6,45.4,69.3,43.2,68.9,40.7"/>
	<path id="path1565" class="st1" d="M63,32.8c0.7,0,1.3,0,1.9,0l-0.3-0.4c-0.5-0.6-1.1-1.3-1.6-1.9l-0.1,0.9c0,0.2,0,0.3,0,0.5
		l0.1,0.5C62.9,32.5,63,32.6,63,32.8"/>
	<path id="path1567" class="st1" d="M22.1,27.1L22.1,27.1l0.2,0.3c0.8,0.4,0.9-0.3,1.2-0.8c0.2-0.5,0.4-1.2,0.8-1.6
		c2.7-2.7,5.5-5.3,8.3-7.9c1-0.9,1.4-2,0.7-2.9c-0.3-0.5-0.7-1-1-1.4c-0.9,0.6-1.7,1.3-2.5,2c0,0.3-0.3,0.9-0.6,1.2
		c-1.2,1.1-2.5,2.1-3.6,3.3c-0.6,0.6-1.1,1.3-1.7,2.1l-0.1-0.3c-0.7,0.8-1.4,1.7-2.1,2.6l0.1,2.4C21.8,26.3,22,26.7,22.1,27.1"/>
	<path id="path1667" class="st2" d="M64.3,44.1l0.5,0c2.9,0.1,2.9,0.1,2.5-2.9c0-0.2-0.1-0.5-0.1-0.8c-0.6-0.2-1.1-0.2-1.2,0.6
		c0,0.2-0.9,0.6-0.9,0.6c-0.9-1-1.8-2.1-2.7-3.2l0.2-0.3l0.2-0.2l0.3-0.3l0.2-0.2l0.2-0.2l0.2-0.3c0.4-0.4,0.8-0.8,1.2-1.2l0.2-0.1
		c0.2,0,0.4,0,0.5,0c0.1,0.3,0.2,0.6,0.3,0.8c0.2,0.2,0.5,0.5,0.8,0.5c0.1,0,0.4-0.2,0.5-0.5c-0.3-0.5-0.5-0.9-0.8-1.3
		c-0.5-0.7-0.9-1.4-1.4-2l-0.2-0.3c-0.6,0-1.2,0-1.9,0c0-0.1-0.1-0.3-0.1-0.5c0-0.2-0.1-0.3-0.1-0.5c0-0.2,0-0.3,0-0.5l0.1-0.9
		c-0.4-0.5-0.8-0.9-1.2-1.4l0,0c-0.1,0.3-0.1,0.7-0.2,1l-0.1,0.7c-0.1,1.6-0.3,3.1-0.4,4.7c0,0.7,0,1.3,0,1.9c0,0.2,0,0.5,0,0.7l0,1
		l0.2,4.2l0,0.2l0.1,0l0.1,0c0,0.2,0,0.5,0.1,0.7c0,0.3,0,0.6,0,1l0,0.5l0.7,3.2l0.1,0.5c0.1,0.4,0.1,0.8,0.2,1.3c0,0.2,0,0.5,0,0.7
		l0.1,0l-0.1,0.5l0.1,0.7l-0.1,0.5c0,0.3,0,0.7,0,1c0.4-0.4,0.7-0.8,1.1-1.2c1.3-1.6,2.6-3.3,3.6-5l0,0l0.2-0.3l-3.7,0.2
		c-0.2,0-0.5,0-0.7,0.1c-0.2-0.5-0.4-1-0.5-1.6c-0.1-0.2-0.1-0.5-0.1-0.7c0-0.2,0-0.5-0.1-0.7l0.4-0.5
		C63.3,44.2,63.8,44.2,64.3,44.1"/>
	<path id="path1673" class="st3" d="M44.6,30.5c0.5,0.7,0.8,1.4,1.1,2.1c0.2,0.1,0.3,0.2,0.5,0.3c0.2,0.1,0.3,0.3,0.5,0.3
		c0.5,0.1,1,0.2,1.5,0.4c-0.2-0.4-0.4-1-0.7-1.2c-1-0.8-2.1-1.5-3.1-2.3C44.3,30.1,44.5,30.3,44.6,30.5"/>
	<path id="path1675" class="st3" d="M48,22.7c-0.1-0.2-0.3-0.4-0.5-0.5l-0.5,0.3c0.3,0.3,0.6,0.6,0.9,0.8C48,23.1,48,22.9,48,22.7"
		/>
	<path id="path1677" class="st3" d="M42.3,28c1.1-0.9,2.2-1.8,3.3-2.7c-0.3-0.3-0.7-0.6-1-0.9c-1,0.8-1.9,1.6-2.9,2.4l-0.1,0.1
		l-0.4,0.4c0.2,0.1,0.3,0.2,0.5,0.3C41.9,27.7,42.1,27.8,42.3,28"/>
	<path id="path1679" class="st3" d="M42,60.8c1.2-1.1,2.4-2.2,3.5-3.3l0.3-0.2c0.2-0.2,0.5-0.4,0.7-0.6l0.2-0.1l0.3-0.3l0.2-0.2
		l0.3-0.2l0.2-0.2c0-0.3,0-0.6,0-0.9c-1.1,0.8-2.2,1.6-3.3,2.2c-0.7,0.6-1.5,1.3-2.2,1.9c-0.3,0.3-0.7,0.6-1,0.9
		c-0.3,0.3-0.7,0.6-1,1c0.1,0.3,0.2,0.7,0.4,0.8c0.4,0.3,0.8,0.5,1.1,0.8c0.4,0.3,0.8,0.5,1.2,0.8l0.2,0.1c0.7,0.5,1.4,1,2.2,1.6
		c0.3,0.2,0.7,0.4,1,0.6l0.5,0.4l1.3,0.1c-0.2-0.4-0.4-0.8-0.7-1.1C45.7,63.5,43.9,62.2,42,60.8"/>
	<path id="path1681" class="st3" d="M56.6,43.6l-0.2-0.3L56,42.8c-0.1,0.6-0.3,1.3-0.5,1.9c0.3-0.1,0.7-0.2,1-0.3
		C56.5,44.2,56.6,43.9,56.6,43.6"/>
	<path id="path1683" class="st3" d="M52.1,39.5c-0.9-0.7-1.7-1.4-2.6-2.1l-0.5,0.1c0.2,0.4,0.3,1,0.6,1.3c0.7,0.8,1.5,1.5,2.2,2.2
		C52,40.5,52.1,40,52.1,39.5"/>
	<path id="path1685" class="st3" d="M49.5,18.3L49.5,18.3l0.5-0.3c0.2-0.1,0.4-0.3,0.5-0.4c-0.3-0.3-0.6-0.6-0.9-0.9l-0.3,0.3
		c-0.3,0.2-0.4,0.5-0.6,0.8L49.5,18.3"/>
	<path id="path1687" class="st3" d="M49,16.1c-0.3-0.3-0.7-0.6-1-0.8l-0.2,0.2l-0.1,0.2c-0.2,0.5-0.5,0.9-0.7,1.4
		c0.3,0,0.7,0.1,1,0.1C48.3,16.8,48.6,16.5,49,16.1"/>
	<path id="path1689" class="st3" d="M46.3,60.2c0.9-0.8,1.9-1.5,2.8-2.4c0.5-0.4,1.5-0.6,1-1.7c-0.6,0.3-1.2,0.5-1.7,0.8l-0.2,0.1
		l-0.3,0.3h0h0c-0.8,0.7-1.6,1.5-2.5,2.1c-0.6,0.4-0.7,0.9-0.2,1.4c1.3,1.5,2.6,3,3.9,4.4c0.2,0,0.4,0,0.6,0l0,0
		c-0.1-0.4-0.1-0.8-0.3-1.1C48.4,62.8,47.4,61.6,46.3,60.2"/>
	<path id="path1691" class="st3" d="M50,24.7c0.1-0.3,0.1-0.6,0.2-0.9c-0.4,0.1-0.9,0.1-1.3,0.4l-0.1,0.1c0.3,0.3,0.5,0.6,0.8,0.9
		l0.2-0.2L50,24.7z"/>
	<path id="path1693" class="st3" d="M44.7,27.7c1.2,1.4,2.3,2.8,3.5,4.3c0.3,0.4,0.7,0.6,1.1,0.9c0.2-0.2,0.4-0.4,0.5-0.6l-3.5-4.5
		c0.3-0.3,0.7-0.5,1-0.8c-0.3-0.3-0.5-0.6-0.8-0.8C45.9,26.7,45.3,27.2,44.7,27.7"/>
	<path id="path1695" class="st3" d="M48.2,47.4c1.5-1.4,2.6-3.1,3.3-5c-0.6-0.6-1.3-1.2-1.9-1.7c-0.7-0.6-1.3-1.1-2-1.7l-0.5-0.2
		l-0.2,0l-0.3,0.3c0.3,0.4,0.5,0.9,0.9,1.3c1,0.9,2.1,1.8,3.2,2.8c-0.7,0.7-1.4,1.5-2.1,2.2L48.1,46l-0.2,0.3l0,0
		c-0.3,0.6-0.5,1.1-0.8,1.7l0.4,0.1C47.7,47.8,47.9,47.6,48.2,47.4"/>
	<path id="path1697" class="st3" d="M50.1,60.7l3-3.2L52.9,57c-0.5,0.2-1,0.3-1.4,0.6c-0.8,0.6-1.4,1.4-2.1,2
		c-0.6,0.5-0.6,0.9-0.1,1.4c0.8,0.8,1.6,1.6,2.4,2.4c0.3,0.2,0.7,0.3,1.1,0.4c-0.2-0.4-0.2-0.9-0.5-1.2C51.6,62,50.8,61.4,50.1,60.7
		"/>
	<path id="path1699" class="st3" d="M52.6,25.8c0.2-0.2,0.2-0.7,0.3-1c-0.4,0.1-0.8,0.1-1.1,0.2c-0.5,0.3-0.8,0.8-1.3,1.1l0,0l0,0
		c0.2,0.3,0.5,0.6,0.7,0.9C51.7,26.7,52.2,26.3,52.6,25.8"/>
	<path id="path1701" class="st3" d="M45.1,15.6c0.2-0.1,0.3-0.2,0.5-0.4l0.2-0.2l0.3-0.2h0c0.2-0.2,0.4-0.5,0.5-0.7
		c-0.3-0.2-0.5-0.4-0.8-0.6l-0.2,0.2l-0.2,0.2c-0.3,0.3-0.7,0.6-1,1c-0.2,0.3-0.3,0.7-0.4,1C44.4,15.8,44.8,15.8,45.1,15.6"/>
	<path id="path1703" class="st3" d="M45.1,46.7c0.4-0.4,0.7-0.7,1.1-1c0.4-0.3,0.7-0.7,1-1.1c0.3-0.4,0.7-1.4,0.5-1.6
		c-0.9-0.9-2-1.8-3-2.6c-0.1,0.2-0.3,0.3-0.4,0.5l0.7,1l0.3,0.3l0,0c0.2,0.2,0.4,0.4,0.6,0.6c0.2,0.2,0.5,0.4,0.8,0.7
		c-0.9,0.8-1.7,1.5-2.5,2.3L44,46l-0.1,0.5c0.3,0.2,0.5,0.3,0.8,0.5L45.1,46.7z"/>
	<path id="path1705" class="st3" d="M40.3,25.3l0.3,0.3l0.2,0.1c0.9-0.7,1.8-1.5,2.7-2.2c-0.3-0.2-0.6-0.4-0.8-0.5L42.4,23l-0.2,0.2
		l-0.3,0.2l-0.3,0.2l-0.2,0.2L41,24.2L40.2,25L40.3,25.3z"/>
	<path id="path1707" class="st3" d="M56.3,40.6l0.3,0c-0.1-0.2-0.2-0.4-0.2-0.6l0,0C56.3,40.2,56.3,40.4,56.3,40.6"/>
	<path id="path1709" class="st3" d="M52.1,37.1c0-0.2,0-0.4-0.1-0.6l-0.3-0.2l0,0l0,0l-0.3,0.2c0.2,0.4,0.2,1,0.5,1.3l0.1,0.1
		C52.1,37.6,52.2,37.4,52.1,37.1"/>
	<path id="polygon1711" class="st3" d="M51.5,36.5L51.5,36.5L51.5,36.5L51.5,36.5z"/>
	<path id="polygon1713" class="st3" d="M52.1,19l-0.3-0.3l0,0.1L52.1,19z"/>
	<path id="path1715" class="st3" d="M41.2,14.7l0.4,0.4l0.1,0l0,0.1l0.4,0.1c0.3-0.4,0.7-0.8,1-1.1l0.7-0.7l0.2-0.3l0.3-0.5l0-0.1
		c-0.7-0.5-1.5-0.9-2.3-1.2c-0.2-0.1-0.4-0.2-0.6-0.2c0.3,0.7,1.3,1,1.6,1.7c-0.5,0.6-1.1,1.2-1.6,1.8L41.2,14.7z"/>
	<path id="path1717" class="st3" d="M53.7,60.7c0.7-0.7,1.3-1.2,1.9-1.8l0-0.4c-1.5-0.7-1.6,1.3-2.7,1.4c-0.1,0-0.1,0.7,0,1
		c0.1,0.4,0.5,0.6,0.7,0.9c0.3,0.3,0.5,0.6,0.7,0.9c0.2-0.3,0.5-0.5,0.7-0.8L55,62C54.6,61.5,54.1,61.1,53.7,60.7"/>
	<path id="path1719" class="st3" d="M44.2,42.8l-0.3-0.2l-0.5-0.3l0,0l-0.3-0.2L43,41.9c-0.3,0.2-0.6,0.3-0.9,0.5l0.4,0.4
		c0.5,0.4,0.7,0.7,0.2,1.3c-0.4,0.4-0.8,0.8-1.2,1.2l0,0.5l0.2,0.2c0.4-0.2,0.8-0.4,1.2-0.6l0.1-0.1l0.2-0.3h0
		c0.4-0.6,0.8-1.3,1.2-1.9L44.2,42.8z"/>
	<path id="path1721" class="st3" d="M52.9,28.7c0.5,0.6,1,1.2,1.5,1.8l0.1,0.1l0.8-0.2c-0.1-0.3-0.2-0.7-0.4-0.9
		c-0.4-0.4-1-0.7-1.3-0.9c0.6-1.3,2.4-1.4,1.7-2.9l-0.1,0l-0.1,0l-0.3,0.2c-0.5,0.5-1,1-1.6,1.4C52.5,27.8,52.4,28.2,52.9,28.7"/>
	<path id="path1723" class="st3" d="M41.7,67.3l-0.2-0.2l-0.3-0.2c-0.2-0.2-0.4-0.5-0.6-0.7l-0.1,0l0,0l0,0
		c-0.2,0.1-0.4,0.2-0.6,0.3c0,0.2,0.1,0.3,0.1,0.5c0.2,0.5,0.4,0.8,0.8,1.1c0.4,0.4,1,0.7,1.5,1.1l0.5-0.3l0-0.5l-0.7-0.7L41.7,67.3
		z"/>
	<path id="path1725" class="st3" d="M55.4,51.5c0.6-0.5,1.2-1.1,1.7-1.7L57,49.2L56.9,49c-0.2,0-0.4,0-0.6-0.1l-0.6,0.7
		c-0.5,0.6-1,1.3-1.4,1.9C54.6,51.6,55.1,51.7,55.4,51.5"/>
	<path id="polygon1727" class="st3" d="M54.2,51.6L54.2,51.6L54.2,51.6z"/>
	<path id="path1729" class="st3" d="M39.5,13l-0.2,0.4c0.3,0.2,0.7,0.7,0.8,0.7c0.5-0.3,0.9-0.7,1.2-1.2c0.1-0.1-0.3-0.6-0.5-0.8
		c-0.4-0.2-0.9-0.3-1.3-0.4c0,0.2,0,0.5,0,0.7l0.1,0l0,0.1V13z"/>
	<path id="polygon1731" class="st3" d="M40.7,22.1L40.5,22l0,0L40.7,22.1z"/>
	<path id="path1733" class="st3" d="M56.4,29.6c0.4-0.1,1-0.2,1-0.3c0-0.7-0.1-1.3-0.2-2c0,0-0.4,0-0.6,0c-1.3,0.3-1.4,0.8-0.5,2
		L56.4,29.6z"/>
	<path id="path1735" class="st3" d="M56,37.4l0.6-0.7c-0.2-0.2-0.3-0.5-0.5-0.7c-0.2-0.1-0.3-0.2-0.5-0.3
		C55.8,36.2,55.9,36.8,56,37.4"/>
	<path id="polygon1737" class="st3" d="M56.2,36L56.2,36L56.2,36L56.2,36z"/>
	<path id="path1739" class="st3" d="M55.7,52.9c0.7-0.1,1.1-0.1,1.4-0.1l0.4-0.2c-0.4-0.4-0.7-0.8-1.1-1.2
		C56.3,51.8,56,52.2,55.7,52.9"/>
	<path id="path1741" class="st3" d="M39.5,51.7l0.3,0c0.3-0.1,0.7-0.2,1-0.2C40.4,51,39.9,51.5,39.5,51.7L39.5,51.7z"/>
	<path id="path1743" class="st3" d="M55.4,60.6c0.1,0.2,0.3,0.4,0.4,0.6c0.3-0.4,0.7-0.7,1-1.1l0.3-0.3L57,59.6
		C56.5,59.9,55.9,60.3,55.4,60.6"/>
	<path id="path1745" class="st3" d="M40.4,45c0.2-0.2,0.4-0.4,0.5-0.6c0.2-0.4,0.4-1.1,0.4-1.2l-0.4-0.3c-0.5,0.1-0.9,0.2-1.4,0.3
		l0,0.1c-0.1,0.3-0.1,0.6-0.2,0.9l0.3,0.2C39.9,44.6,40.1,44.8,40.4,45"/>
	<path id="path1747" class="st3" d="M55.5,47.9l0.3-0.3h0c0.3-0.3,0.7-0.7,1-1c-0.2-0.3-0.3-0.6-0.5-0.9c-0.7,0.6-1.4,1.1-2.1,1.6
		c-0.2,0.3-0.3,0.5-0.5,0.8c-0.4,0.6-0.8,1.2-1.3,1.8c0.3-0.1,0.7-0.3,1-0.4c0.5-0.4,1.1-0.9,1.6-1.3L55.5,47.9z"/>
	<path id="path1749" class="st3" d="M43.6,65.1L43.4,65l-1.2-0.8L41.9,64c-0.5-0.4-1.1-0.7-1.6-1.1l0,0L40,63.3l0,0l0,0.1l0,0.3
		l0,0.1l0,0.1c0.3,0.3,0.7,0.6,1,0.9l0.4,0.4l0.3,0.2l0,0l0,0l0.3,0.2l0,0c0.5,0.3,0.9,0.7,1.4,1l0.5,0.5l0.3,0.2
		c0.2,0,0.5,0.1,0.7,0.1c-0.1-0.4-0.1-0.9-0.3-1.3C44.3,65.8,43.9,65.5,43.6,65.1"/>
	<path id="polygon1751" class="st3" d="M41.7,65.3L41.7,65.3L41.7,65.3L41.7,65.3z"/>
	<path id="path1753" class="st3" d="M57.3,35c0.1-0.2-0.5-0.7-0.8-1.1c-0.9,0.7-0.8,1.3-0.4,2C56.6,35.6,57.1,35.4,57.3,35"/>
	<path id="polygon1755" class="st3" d="M56.2,36L56.2,36L56.2,36L56.2,36z"/>
	<path id="path1757" class="st3" d="M40.5,68.6l-0.3,0l-0.1,0l-0.4,0L39.4,69l-0.2,0.4l0,0.1l0,0l0,0c0.5,0.2,1,0.4,1.8,0.6
		C40.9,69.4,41,68.7,40.5,68.6"/>
</g>
</svg>
