<svg version="1.1" id="Calque_1" x="0" y="0" xml:space="preserve" width="128" height="128" xmlns="http://www.w3.org/2000/svg"><style type="text/css" id="style1437">.st0{fill:#ff9e18}.st1{fill:#2d2a26}.st3{fill:#f3cfb2}</style><g id="g1837" transform="translate(-5.784 -10.385)"><path class="st0" d="M63.14 124.48c-.16-.26-.31-.53-.47-.79l.01.01-.44-.75-.01-.01-.31-.5.04.04-.48-.77.01.01c-.39-.53-.79-1.06-1.18-1.6l.02.03-.44-.43-.37-.35-.41-.46.04.04.01.01-.28-.65-.41-.26-.21-.53-.36-.1-.04-.36-.34-.06-.05-.35-.34-.05-.05-.35.01.01-.4-.4-.41-.4-.4-.4.02.02-.38-.05-.08-.35-.32-.02-.02-.31-.45-.46.02.05-.83-.77c-.3-.28-.6-.55-.9-.83l-.85-.58-.27-.58-1.04-.89v.01l-.4-.42.02.01-.63-.52-.01-.01-.06-.05.04.03.02.01.01.01c-.32-.35-.65-.71-.97-1.07l.01.02-.39-.46.03.03.03-3.46-.03.02.35-.49.39-.39.42-.4.39-.33.37-.47v-.01l.48-.69.6-.16v.03l.47-.45h-.03l.1-.68.45-.77-.03.04.3-.49.1-.2.38-.54-.01.01.02-.03-.01.02.38-.37h-.01l.04-.04-.04.04.47-.4-.03.03.28-.25c-.83-.45-1.65-.93-2.46-1.41l-.41-.26-.18-.12c-.61.6-1.23 1.2-1.84 1.8h.01c-.47.45-.94.89-1.41 1.34l.01-.01-.45.38c-.27.4-.53.8-.79 1.2l-.36.37-1.86-.06-.02-.02c-.19-3.38-.39-6.77-.58-10.15l-.59-.47c-.48-.39-.95-.79-1.42-1.2l-.47-.41c-.02 1.9-.03 3.79-.05 5.69-.03 2.83-.09 5.66-.16 8.48-.03 1.47-.07 2.95-.1 4.42l.51.51c1.11 1.13 2.23 2.24 3.37 3.35l.52.51.16-.6c.37-.04.73-.08 1.1-.13l.32.08.68.56-.01-.12.03.13-.01-.01v.02c.32.46.64.92.96 1.39l-.01-.03.37.49.12.27c.48.43.97.85 1.45 1.28l.01.01c.53.53 1.06 1.06 1.59 1.58.92.92 1.84 1.84 2.77 2.75l.02.02-.02-.01c.23.29.46.59.68.88l-.01-.03.55.71-.02-.03.24.3c2.14 1.55 4.4 2.9 6.86 3.92l-.28-.37z" id="path1445"/><path class="st0" d="M43.6 54.84c.04-.65.29-1.33.75-2.01-.46.68-.71 1.36-.75 2.01m-.68 23.9.48.47c-.2-4.56-.39-9.12-.6-13.68-.1-2.31.3-2.79 2.39-2.68 1.57.32 2.75 1.09 3.19 2.73l.01.01v-.01l.37.46-.03-.03 1.58 1.61-.03-.03.44.45-.01-.01-.04-.03.44.45-.04-.03c.37.42.74.85 1.12 1.27l-.03-.04.58.68c1.92 2.32 3.92 4.58 5.75 6.97 1.39 1.81 2.58 3.78 3.85 5.68-.01.27-.01.54-.01.8l-.26.68.03-.02.03-.02-.37.5.03-.03-.01.01-.01.01-.38.43-.4.4-.37.35-.45.42-.75 1.2.03-.02-.47.41.03-.04-.39.34c.89.28 1.79.53 2.7.73l.31.08.23-.66-.01.01.47-.77c.87-1.25 1.74-2.5 2.6-3.75l.01-.08c-.24-.32-.48-.64-.73-.96l-.07-.73c-1.48-2.35-2.95-4.7-4.43-7.05-.45-.55-.89-1.11-1.34-1.66-1.74-.85-3.35-1.91-4.8-3.23-.95-.87-1.84-1.84-2.66-2.93a17.5 17.5 0 0 1-1.75-2.92c-.25-.54-.48-1.09-.66-1.66-.19-.59-.35-1.18-.46-1.78l-.05-.29-.33-.36-.39-.41c-.4-.52-.81-1.03-1.22-1.55l-.16-.63-.64-.16-.17-.64c-.21-1.34-.43-2.68-.64-4.03l5.16-5.1c1.72-1.52 3.43-3.05 5.15-4.58.77-.85 1.58-1.66 2.41-2.44l.65-.7.61-.74c2.27-2.05 4.45-4.22 6.85-6.11 1.14-.9 1.6-1.61.82-2.87h.02l-.33-.45-.01-.01-.01-.01-3.36-4.5-.46.28c-.34.25-.68.51-1.02.76l1.68 2.31c.99 1.39.39 3.21-1.19 4.69-4.52 4.22-9.01 8.47-13.43 12.78-.64.62-.9 1.65-1.28 2.51-.37.83-.51 1.91-1.87 1.33l-.4-.45.02.01c-.19-.62-.51-1.24-.54-1.87l-.18-3.86c-.55.71-1.11 1.41-1.63 2.14l-.39.56c0 4.89-.02 9.79-.04 14.68-.03 5.34-.1 10.69-.14 16.03l.5.54c.33.28.61.56.9.84" id="path1447"/><path class="st0" d="M57.74 46.16c-2.81 3.23-4.75 6.83-5.1 11.01.87.98 1.78 1.94 2.59 2.97 1 1.27 1.91 2.62 2.86 3.93l.03.03.09.09c1.72 2.18 3.44 4.37 5.16 6.55l.03.05c.43-.21.86-.43 1.27-.63-.26-1.72-.52-3.39-.57-5.04l-.09-.13c-2.67-3.96-2.48-8.72.4-12.31l.21-5.05c.01-.3.22-.6.33-.9l-.01-.06-.01-.08c.29-1.83.57-3.65.86-5.48-3.12.87-5.88 2.56-8.05 5.05" id="path1449"/><path class="st0" d="M37.47 92.84c-.37-.44-.74-1.19-1.16-1.22-3.19-.23-6.4-.37-9.84-.54 1.1 1.43 2.26 2.81 3.45 4.16l.03-.25c.31-1.1.48-2.45 2.21-2.11 1.58.3 1.66 1.43 1.56 2.7-.09 1.18-.16 2.36-.21 3.54l.66.68c.87.9 1.74 1.81 2.61 2.71l.84.87c-.04-3.39-.09-6.77-.13-10.16z" id="path1451"/><path class="st0" d="M26.26 70c.24-.71.64-1.41.69-2.14.07-1.01.12-2.03.18-3.04l-.67-.03c-.34.02-.67.09-.99.21-.65.24-1.26.56-1.82.94l-.2.41-.4.07c-.35.32-.67.68-.94 1.09l-.24.35c-.45.84-.85 1.71-1.31 2.55l-.3.64c1.19.06 2.38.13 3.57.17.8.03 1.63-.8 2.43-1.22" id="path1453"/><path class="st0" d="M32.36 77.63c-1.27-2.39-2.07-4.99-2.29-7.8-.03-.37-.08-.74-.14-1.1v.01c-.17 1.45-.33 2.9-.5 4.36l-.01.02-.45.74c-.46.53-.94.86-1.47 1.07-.88.34-1.87.32-2.98.19-1.72-.2-3.44-.38-5.16-.55-.12 1.58.08 3.18.49 4.77h12.37c.04-.6.09-1.16.14-1.71" id="path1455"/><path class="st0" d="m35.6 59.95-.17.01c-.27 1.48-.34 2.95-.22 4.42.38.09.8.21 1.31.4.14.7.45 1.4.4 2.09-.08 1.11-.17 2.23-.26 3.34.28.65.59 1.29.94 1.9.04-2.44.09-4.88.13-7.32v-.8c.1-1.23.19-2.45.3-3.84-.76-.06-1.33-.1-1.9-.15z" id="path1457"/><path class="st0" d="M37.67 53.45c-.13.26-.24.53-.36.8-.17.38-.33.75-.49 1.14-.13.31-.25.62-.36.93.4.04.8.07 1.21.11z" id="path1459"/><path class="st0" d="m36.2 87.78.67-.17.67-.3.07-.78-.03-1.15v-.7c-.69-.76-1.36-1.54-2.01-2.34l-.35.5c-.37.3-.74.59-1.12.89-.8.01-1.6.03-2.4.05-.83.02-1.67.02-2.49 0-2.57-.06-5.13-.14-7.69-.22.52.99 1.08 1.96 1.68 2.91.28.45.6.87.89 1.31.31-.06.61-.13.92-.2l.29-.02 1.75-.15c3.05.14 6.1.29 9.15.37" id="path1461"/><path class="st0" d="M67.34 89.85h.21c-.05-.69-.09-1.38-.16-2.06l-.56-.1c-.55.67-1.1 1.35-1.66 2.02.72.06 1.44.13 2.17.14" id="path1463"/><path class="st0" d="M57.94 99.23c-.81 1.08-1.62 2.16-2.47 3.2-1.8 2.21-1.81 3.43.27 5.34 2.32 2.13 4.63 4.28 6.94 6.42l.41.38.4.39.39.4.39.4 2.37 2.07c.71-5.57 1.11-11.03 1.21-16.45-1.96.02-3.91-.19-5.86-.7-1.4-.37-2.74-.88-4.05-1.45" id="path1465"/><path class="st0" d="M47.96 73.7c-.36-.35-1.08-.34-1.63-.5-.13.52-.43 1.05-.36 1.54.3 2.49.63 4.99.97 7.48a39.42 39.42 0 0 0 6.16 3.87c.7-.86 1.4-1.73 2.12-2.59.89-1.05.75-1.81-.16-2.7-2.39-2.35-4.7-4.77-7.1-7.1" id="path1467"/><path class="st0" d="M50.12 36.94c1.9-1.81 3.99-3.42 5.87-5.26.44-.43.89-1.39.92-1.95-.92.8-1.82 1.62-2.68 2.5-2.41 2.46-4.78 4.95-7.04 7.54l.17.56c1.05-1.31 1.79-2.47 2.76-3.39" id="path1469"/><path class="st1" d="M89.61 103.93c1.21 1.11 2.49 2.18 3.63 3.39.43.46.53 1.23.78 1.86-.59-.23-1.31-.32-1.75-.72-1.37-1.22-2.65-2.53-3.93-3.84-.78-.8-.73-1.51.2-2.28 1.21-1.01 2.24-2.24 3.45-3.24.61-.5 1.46-.7 2.2-1.03l.23.75c-1.51 1.59-3.02 3.2-4.81 5.11m-2.44 9.12c.26-.4.53-.79.79-1.19l.04-.5c-2.1-2.39-4.21-4.77-6.31-7.16-.77-.88-.56-1.55.36-2.26 1.39-1.07 2.67-2.28 4-3.42h-.03l.01-.01.55-.46.3-.22c.93-.43 1.86-.85 2.79-1.28.7 1.65-.9 1.97-1.64 2.69-1.4 1.37-2.95 2.59-4.44 3.87 1.73 2.2 3.41 4.29 5 6.44.32.44.29 1.14.42 1.71l-.01.01c-.33.03-.66.05-.99.08l-.04.5c-.28.41-.54.8-.8 1.2m9.17-23.79zm2.32-3.1.93-1.14.97.12.28.28.09.96c-.91.93-1.75 1.95-2.77 2.74-.41.31-1.2.12-1.83.15.79-1.05 1.56-2.08 2.33-3.11m2.35 4.94c-.56.06-1.12.11-2.29.23.53-1.05.89-1.76 1.24-2.47.58.66 1.15 1.31 1.72 1.97zm-6.86-38.79c-.78-.9-.65-1.52.35-2.21.94-.65 1.72-1.54 2.57-2.33l.55-.35.23-.02.24.04c1.07 2.51-1.77 2.62-2.8 4.73.57.39 1.44.85 2.14 1.5.36.33.43.98.63 1.49l-1.32.36-.15-.24c-.81-.99-1.6-2-2.44-2.97m5.24 1c-1.46-1.94-1.28-2.74.79-3.29.29-.08.88-.06.89-.01.2 1.06.41 2.14.39 3.21-.01.19-1.06.36-1.64.54zm-31.21 66.07.39-.79h-.39.4zm4.28-1.97.5-.74.58-.08.1-.02.48.06c.8.28.67 1.39.88 2.61-1.21-.45-2.02-.74-2.83-1.04l.02-.02-.05-.06-.08-.1zm6.32-6.54.35.25c.54.56 1.21 1.04 1.58 1.69.34.58.37 1.35.53 2.04-.39-.07-.79-.15-1.18-.22l-.41-.32-.88-.85c-.73-.56-1.47-1.12-2.21-1.69l.03.04-.47-.35.01.01-.01-.01-.02-.02.02.01-.43-.36-.7-.62c-.54-.51-1.07-1.02-1.61-1.53l.05-.12-.08-.1.01-.41.05-.08-.08-.06.46-.64-.01.05c.88.58 1.75 1.16 2.63 1.74l.38.22c.67.43 1.33.88 1.99 1.33m-1.9 6.53c-.78-.59-1.65-1.09-2.37-1.74-.54-.48-.99-1.05-1.24-1.78-.09-.24-.15-.51-.19-.79.35-.15.69-.31 1.04-.46l.04.05.04.05.12-.01c.31.38.63.76.95 1.14l.43.39.39.39.41.41 1.2 1.17-.08.77zm-1.29-90.7a8.86 8.86 0 0 1-2.01 1.95c-.12.08-.83-.69-1.26-1.06l.27-.62v-.78l.01-.11-.09-.06c.02-.39.05-.77.07-1.15.73.19 1.51.26 2.15.6.41.22.96 1.09.86 1.23m34.13 66.6c-.01-.54-.03-1.08-.04-1.61l-.36-.01.36.01.12-.8-.18-1.19.12-.79-.2.03c.03-.39.05-.77.08-1.16-.09-.68-.18-1.36-.26-2.04l-.13-.77c-.35-1.73-.7-3.46-1.04-5.18l-.08-.78c.03-.52.05-1.04.08-1.56-.03-.39-.07-.77-.11-1.16l-.14-.03-.14-.03-.05-.37-.36-6.74-.03-1.56c0-.4-.01-.8-.01-1.19.01-1.05.03-2.1.04-3.14.23-2.51.46-5.01.68-7.52l.12-1.18c.1-.53.19-1.06.29-1.59l.01-.08c-1.57-1.8-3.18-3.56-4.85-5.27-3.59-3.66-7.12-7.38-10.8-10.95l-.51-.34.07-.09c-.26-.25-.52-.51-.79-.76-.41-.39-.83-.78-1.24-1.16-.29.22-.59.43-.88.65l-.64.54-.11-.02c-.47-.28-.94-.56-1.41-.83.31-.45.54-1.01.95-1.32l.56-.41c-.33-.3-.67-.6-1.01-.9-.51.58-1.03 1.15-1.54 1.74-.53-.07-1.06-.14-1.59-.2.38-.76.77-1.52 1.15-2.28l.13-.33.26-.29c-.64-.55-1.28-1.09-1.94-1.62l-.27-.2c-.29.38-.59.76-.88 1.14h.01l-.44.4-.36.28c-.24.21-.45.52-.73.62-.58.2-1.2.3-1.81.44.21-.54.31-1.15.65-1.6.46-.62 1.09-1.11 1.65-1.65l.35-.31.31-.29-.26-.2c-.62-.46-1.26-.9-1.91-1.33l-.18-.11.02.22-.43.73-.36.46-1.2 1.2-1.65 1.83-.66-.1-.07-.16-.16-.07-.59-.61.44-.33c.87-.95 1.73-1.9 2.61-2.86-.5-1.17-2.12-1.53-2.58-2.72-.28-.11-.55-.22-.83-.31-1.47-.51-2.99-.84-4.49-.75-1.03.06-2.03.25-3.01.49-.37.09-.74.18-1.11.3-.78.26-1.55.56-2.29.94-.56.29-1.11.63-1.64 1 1.12 1.5 2.24 3 3.37 4.5l.01.01.01.01.33.45h-.02c.78 1.27.32 1.97-.82 2.87-2.4 1.89-4.58 4.06-6.85 6.11l-.61.74-.65.69.64-.59c.32-.28.64-.55.96-.82.51-.43 1.02-.85 1.55-1.25.52-.39 1.05-.74 1.59-1.06.32-.19.65-.36.97-.53.37-.2.75-.4 1.13-.57 2.35-1.01 4.79-1.39 7.32-1.11.39.04.77.12 1.16.19l.74.15c.33.08.66.17.99.27.39.12.78.24 1.18.39l.32.1.02.01c3.26 1.3 6.02 3.41 8.59 5.75l.01.01.43.42.78-.43c.24.29.48.58.73.87-.05.29-.02.67-.12.91.48.49.95.99 1.42 1.5l.17-.15c.51-.41 1.35-.41 2.04-.6-.09.5-.17 1-.26 1.51l-.42.39-.29.25c.52.6 1.03 1.22 1.53 1.85l.07-.08v.02c.67-.62 1.27-1.34 2.02-1.84.45-.3 1.13-.28 1.7-.4-.16.57-.14 1.31-.5 1.68-.68.69-1.41 1.35-2.2 2.04l.09.12c1.48 2 2.8 4.11 3.96 6.29.15.28.29.57.43.85s.29.56.43.85l.27.54.04.08c.4.87.77 1.76 1.12 2.66l.21.5c.24.64.44 1.29.61 1.95.28.17.55.34.82.51l-.02-.03.07.06-.07-.06.03-.05c-.67-1.06-.78-2.08.61-3.22.45.6 1.37 1.46 1.23 1.72-.36.64-1.19 1.02-1.84 1.5l.05.08-.04-.03c.25.38.49.76.74 1.14l-.99 1.14c.1.6.2 1.21.28 1.82l.11.77c.07.51.11 1.02.12 1.52l.04.03c.13.34.27.69.4 1.03l-.46.05c-.01.3-.04.6-.06.9-.07.78-.18 1.55-.3 2.31l-.09.37.58.74.29.45c-.03.48-.07.97-.1 1.45-.53.14-1.13.19-1.6.42a23.75 23.75 0 0 1-2 4.24c1.09-.81 2.2-1.64 3.39-2.53.22.44.48.95.74 1.46-.53.53-1.06 1.06-1.6 1.59h.01l-.51.41-.6.47c-.88.69-1.77 1.38-2.65 2.08-.55.24-1.11.48-1.66.71l-.62.74c-.42.51-.84 1.02-1.28 1.52-.74.83-1.52 1.63-2.33 2.4-1.01.97-2.06 1.91-3.17 2.79l-.15.12-.11.08c.02.46.05.93.07 1.4l-.37.37-.49.36-.35.31-.53.47-.29.24c-.38.33-.76.65-1.14.98l-.43.37c-1.9 1.78-3.8 3.55-5.72 5.34 3 2.21 5.93 4.32 8.79 6.52.51.39.73 1.17 1.08 1.76l-2.11-.15-.73-.58c-.54-.35-1.08-.69-1.63-1.04-1.17-.84-2.34-1.67-3.51-2.51l-.38-.23c-.63-.42-1.27-.82-1.9-1.23-.63-.41-1.26-.84-1.86-1.29-.36-.27-.44-.9-.65-1.36.53-.51 1.06-1.04 1.59-1.56s1.07-1.03 1.62-1.52c1.18-1.04 2.38-2.05 3.57-3.06-2.21 1.25-4.54 2.25-7.07 2.86-.53.13-1.06.25-1.6.35l-.2.02c-.55.09-1.09.15-1.64.2-.36.03-.71.07-1.07.09-.37.02-.74.02-1.11.02-.09 5.42-.5 10.88-1.21 16.45l-2.37-2.07-.39-.4-.39-.4-.4-.39-.41-.38c-2.31-2.14-4.62-4.29-6.94-6.42-2.08-1.91-2.07-3.13-.27-5.35.85-1.04 1.66-2.12 2.47-3.2-.29-.13-.59-.24-.88-.38-.53-.25-1.05-.51-1.57-.78-.4-.21-.81-.4-1.2-.62l-.28.25.03-.03-.47.4-.38.37-.38.54-.1.2-.3.49.03-.04-.42.77-.1.68h.03l-.47.45v-.03l-.6.16-.48.69v.01l-.38.46-.39.33-.42.4-.39.39-.35.49.03-.03-.03 3.46-.03-.03.39.46-.01-.01c.32.36.64.71.97 1.07l.63.52-.02-.01.4.42v-.01c.35.29.69.59 1.04.89l.27.58c.28.2.57.39.85.58.3.28.6.55.9.83l.83.77-.02-.05.45.46.02.31.32.02.08.35.38.05-.02-.02.4.4.41.4.4.4-.01-.01.05.36.34.05.05.35.34.06.04.36.36.1.21.53.41.26.28.65s0-.01-.01-.01l-.04-.04.41.46.37.35.43.43-.02-.03c.39.53.79 1.06 1.18 1.6l-.01-.01.48.78-.04-.04.31.5.01.01.44.75-.01-.01c.16.26.31.53.47.79l-.05-.06.28.37.43.19c.56.22 1.13.4 1.7.56.78.21 1.57.35 2.36.43l.68.04c.89.05 1.77.03 2.66-.12 2.26-.38 4.32-1.34 6.32-2.46.45-.25.89-.5 1.33-.77l.47-.3c3.14-1.96 5.94-4.33 8.65-6.8.78-.71 1.56-1.43 2.33-2.16.68-.64 1.36-1.28 2.04-1.91.33-.3.64-.62.96-.93 1.07-1.04 2.13-2.11 3.16-3.2-.4-.5-.8-1.01-1.21-1.5-.41-.5-.97-.94-1.2-1.52-.19-.47-.06-1.57.05-1.59 1.75-.26 1.96-3.42 4.37-2.31l-.04.64c-.94.89-1.87 1.79-3 2.85.72.69 1.49 1.29 2.09 2.02l.12.15 1.35-1.44c-.24-.32-.48-.65-.72-.9.84-.54 1.67-1.11 2.55-1.56l.26.25c.26-.27.52-.55.77-.82 2.01-2.13 4.02-4.28 6.07-6.38l.29-.31c.26-.26.5-.54.75-.81.26-.28.52-.56.77-.84" id="path1517"/><path class="st1" d="m48.65 53.39.1-.33c.75-2.31 1.91-4.47 3.36-6.49.19-.26.37-.53.57-.79.67-.87 1.38-1.7 2.1-2.51-1.72 1.52-3.43 3.05-5.15 4.58l-5.16 5.1c.21 1.34.42 2.69.64 4.03l.17.64.64.16.16.63c.4.52.81 1.03 1.21 1.55l.39.41.33.36c-.14-.84-.2-1.69-.18-2.55.01-.3.01-.6.04-.9.12-1.36.4-2.64.78-3.89" id="path1519"/><path class="st1" d="M37.58 84.68v.7l.03 1.15-.07.78-.67.3-.67.17c-3.05-.08-6.1-.23-9.14-.36l-1.75.15-.29.02c-.31.07-.61.13-.92.2.76 1.12 1.54 2.22 2.37 3.29 3.45.16 6.65.31 9.84.54.42.03.79.78 1.16 1.22l.02.39c.05 3.38.09 6.77.13 10.16 1.17 1.22 2.35 2.43 3.53 3.63.03-1.48.07-2.95.1-4.43.06-2.83.13-5.65.16-8.48.02-1.9.03-3.79.05-5.69-.55-.48-1.11-.96-1.64-1.45-.78-.73-1.51-1.5-2.24-2.29" id="path1521"/><path class="st1" d="M32.17 92.88c-1.74-.33-1.91 1.01-2.21 2.11l-.03.25c1.12 1.26 2.27 2.51 3.44 3.72l.15.15c.06-1.18.12-2.36.21-3.54.1-1.26.02-2.39-1.56-2.69" id="path1523"/><path class="st1" d="M37.67 56.43c-.41-.04-.81-.07-1.21-.11-.24.65-.47 1.31-.67 1.99-.16.55-.26 1.1-.36 1.65l.17-.01.53.05c.57.05 1.14.09 1.9.15-.11 1.38-.21 2.61-.3 3.83v.8c-.04 2.44-.08 4.88-.13 7.32.85 1.52 1.89 2.93 3.06 4.26.3.34.6.66.91.98.05-5.34.12-10.69.14-16.03.02-4.89.04-9.79.04-14.68-1.53 2.19-2.94 4.44-4.08 6.82z" id="path1525"/><path class="st1" id="polygon1527" d="m23.46 66.35.19-.41-.6.48z"/><path class="st1" d="M31.71 83.79c.8-.02 1.6-.04 2.4-.05.37-.3.74-.59 1.12-.89l.35-.5c-.52-.65-1.03-1.31-1.52-1.99-.64-.88-1.2-1.79-1.7-2.73-.05.55-.1 1.11-.14 1.72H19.85l.04.19c.37 1.42.96 2.75 1.63 4.04 2.56.07 5.13.16 7.69.22.84.02 1.67.01 2.5-.01" id="path1529"/><path class="st1" d="M27.51 74.94c.53-.21 1.02-.54 1.47-1.07l.44-.74.01-.03c.17-1.45.33-2.9.5-4.36v-.01c-.17-1.01-.43-1.97-.6-2.83-.77-.66-1.5-.98-2.2-1.09-.06 1.01-.11 2.03-.18 3.04-.05.73-.45 1.43-.69 2.14-.81.43-1.64 1.25-2.43 1.23-1.19-.04-2.38-.12-3.57-.17-.53 1.15-.82 2.33-.91 3.52 1.73.17 3.45.35 5.16.55 1.13.13 2.12.16 3-.18" id="path1531"/><path class="st1" d="M36.66 70.2c.09-1.11.18-2.23.26-3.34.05-.68-.25-1.39-.4-2.09-.51-.19-.93-.32-1.31-.4.07.93.2 1.85.42 2.77.25 1.06.6 2.08 1.03 3.06" id="path1533"/><path class="st1" d="m64.68 70.15.13-.06c.26-.39.44-.77.54-1.13a2.9 2.9 0 0 0 0-1.6c-.09-.34-.24-.67-.43-1L64.7 66c-.2-.29-.39-.59-.59-.89.05 1.65.31 3.31.57 5.04" id="path1535"/><path class="st1" d="m64.41 52.66.08-.09c.31-.38.62-.75.99-1.1 2.21-2.08 4.71-2.89 7.25-2.43l.39.07c.72.17 1.43.45 2.15.82l.64-.58.19-.15c1.56-1.3 3.13-2.58 4.69-3.88-.64-.53-1.3-1.04-1.98-1.5-1.44 1.21-2.87 2.42-4.31 3.63l-.33-.1-.41-.49.01-.57 1.29-1.23.63-.52.37-.33.43-.36.46-.39.37-.33.14-.13c-.54-.31-1.09-.58-1.66-.82-.41-.18-.82-.35-1.25-.49l-.27-.06-.05-.04-.61-.19c-.59-.16-1.19-.3-1.82-.39l-.47-.07c-.52-.08-1.04-.14-1.56-.2-.58-.06-1.15-.08-1.71-.04-.31.02-.61.04-.91.1l-.53.13c-.27.07-.55.13-.82.2-.29 1.83-.58 3.65-.86 5.48l.01.07.01.06c-.12.3-.32.59-.33.89-.08 1.66-.15 3.35-.22 5.03" id="path1537"/><path class="st1" d="m58.22 64.18-.09-.09-.03-.03c-.95-1.31-1.86-2.66-2.86-3.93-.81-1.03-1.72-1.98-2.59-2.97v.05c-.08 1.01-.1 2.04.02 3.11.35 3.2 1.8 5.77 4.21 7.86.4.35.81.65 1.24.94.31.21.64.38.96.56.45.24.92.45 1.41.63.55.21 1.14.38 1.74.51.26.06.5.13.77.17l.42-.21-.03-.05c-1.73-2.18-3.45-4.37-5.17-6.55" id="path1539"/><path class="st1" d="M61.67 74.83c-.61-.2-1.21-.41-1.79-.64-.51-.2-1.01-.42-1.5-.66.45.55.9 1.11 1.34 1.66 1.48 2.35 2.95 4.7 4.43 7.05l.07.73c.24.32.48.64.73.96l-.01.08c-.87 1.25-1.74 2.5-2.6 3.75l-.47.76v-.01l-.23.66.05.01c.84.18 1.68.32 2.54.42.31.04.63.05.94.08l1.66-2.02.56.1c.06.69.1 1.38.15 2.06h.66c.71-.01 1.41-.03 2.11-.08.74-.06 1.48-.15 2.21-.28l.03-.13c.71-.22 1.39-1.13 2.13-.35l.23-.05c.55-.15 1.08-.31 1.62-.49 3.24-1.07 6.22-2.68 8.84-4.93l-.58-.15c.43-.9.86-1.8 1.3-2.7l-.02.01.36-.47.78-1.11c1.07-1.14 2.15-2.27 3.34-3.52-1.8-1.54-3.52-2.94-5.15-4.44-.59-.55-.95-1.34-1.42-2.02l.43-.45.39-.06.74.25c1.07.91 2.16 1.81 3.23 2.72 1.06.9 2.11 1.82 3.12 2.77.25-.72.47-1.46.64-2.22-1.23-1.18-2.44-2.37-3.62-3.6-.49-.51-.61-1.38-.89-2.08l.74-.14c1.38 1.14 2.76 2.28 4.15 3.42.08-.86.11-1.75.08-2.66l-.24-.2c-.48-.45-.54-1.36-.79-2.06l-.02.02.02-.02.49-.37-.04.04-.04.04.47.36-.04-.37c-.13-.88-.31-1.73-.53-2.57-.33-1.25-.76-2.46-1.27-3.65-.3-.69-.63-1.38-.99-2.05-.26-.5-.54-.99-.82-1.48-1.14-1.92-2.53-3.64-4.04-5.26-.53.44-1.07.89-1.59 1.32 1.99 2.53 3.84 4.87 5.68 7.22-.29.34-.59.68-.88 1.02-.61-.49-1.31-.9-1.8-1.48-1.93-2.27-3.8-4.59-5.67-6.87.96-.82 1.96-1.68 2.97-2.55-.4-.4-.8-.8-1.21-1.2l-.22-.2c-1.74 1.45-3.49 2.9-5.28 4.38 1.16.91 2.14 2.01 3.04 3.24 1.75 1.26 3.43 2.49 5.08 3.76.58.44.81 1.33 1.2 2.01-.79-.18-1.58-.34-2.36-.57-.3-.09-.56-.33-.84-.5-.27-.16-.54-.33-.81-.49.71 2.03.9 4.13.64 6.3-.07.59-.18 1.19-.32 1.8l-.14.64-.02.07a11.54 11.54 0 0 1-1.18 2.85c-.16.27-.32.53-.5.78 1.65 1.35 3.32 2.69 4.79 4.2.32.32-.28 1.9-.83 2.62-.48.64-1.04 1.22-1.61 1.78-.58.56-1.17 1.12-1.74 1.69v-.01l-.74.46c-.39-.25-.81-.5-1.22-.76l.18-.74.67-.55c1.3-1.18 2.61-2.36 4.05-3.67-.51-.44-.95-.81-1.35-1.16-.37-.32-.71-.61-1.04-.9l-.08-.07-.56-.5-1.13-1.61c-.29.34-.61.65-.94.95-.38.33-.78.64-1.22.92l.25.25.44.34.01.01.75.48.45.3.35.42c-.67 1.04-1.33 2.07-2 3.11h.01l-.33.44-.1.17c-.63.34-1.27.68-1.91 1.02l-.37-.4.06-.75c.64-.65 1.28-1.3 1.91-1.96.82-.85.51-1.35-.35-2.03l-.61-.62c-.49.22-1 .41-1.54.58l-.46.12.66.48c.13.08-.29 1.25-.57 1.87-.18.39-.58.69-.87 1.03-.41-.31-.83-.61-1.24-.91l-.5-.37c.11-.46.21-.93.32-1.39l-.02-.19c-1.97.35-3.98.42-5.99.21-.72-.08-1.45-.18-2.17-.33-.85-.18-1.67-.41-2.47-.65z" id="path1541"/><path class="st1" d="m56.27 120.58.02.03-.55-.71.01.03c-.23-.3-.46-.59-.69-.88-.92-.92-1.84-1.84-2.76-2.75-.53-.53-1.06-1.06-1.59-1.58-.48-.43-.97-.85-1.45-1.27l-.11-.27-.37-.49.01.03c-.32-.46-.64-.92-.96-1.39v-.02l-.68-.56-.32-.08c-.37.04-.73.08-1.1.13l-.16.6c2.81 2.71 5.69 5.34 8.74 7.79.73.59 1.47 1.16 2.23 1.71z" id="path1543"/><path class="st1" id="polygon1545" d="m47.82 111.3-.03-.13.01.12z"/><path class="st1" id="polygon1547" d="m55.07 119.05-.02-.02.01.01z"/><path class="st1" d="M45.96 74.75c-.06-.49.23-1.03.37-1.54.55.16 1.27.15 1.63.5 2.4 2.33 4.72 4.75 7.1 7.1.91.9 1.04 1.66.16 2.7-.72.85-1.42 1.72-2.12 2.59.97.49 1.97.96 3 1.38.84.34 1.69.64 2.55.91l.39-.33-.04.03.46-.41-.03.02.75-1.2.45-.42.37-.35.4-.4.38-.43-.01.02.37-.5-.03.02-.03.02.26-.68c0-.27.01-.54.01-.8-1.28-1.9-2.46-3.87-3.85-5.68-1.83-2.39-3.83-4.65-5.75-6.97l-.58-.68.03.04c-.37-.42-.74-.85-1.12-1.27l.04.03-.45-.45.04.04-.44-.44.03.03-1.58-1.61.03.03-.37-.46-.01-.01c-.44-1.63-1.61-2.41-3.19-2.73-2.09-.11-2.49.37-2.39 2.68.21 4.56.4 9.12.6 13.68 1.12 1.08 2.3 2.08 3.53 3.02-.33-2.5-.66-4.99-.96-7.48" id="path1549"/><path class="st1" id="polygon1551" d="m61.79 84.89.01-.01-.01.02z"/><path class="st1" d="M46.76 100.37c.27-.4.53-.8.79-1.2l.45-.38-.01.01c.47-.45.94-.89 1.41-1.34h-.01c.62-.6 1.23-1.2 1.84-1.8a66.973 66.973 0 0 1-7.29-5.16c.18 3.39.39 6.77.58 10.16l.02.02 1.86.06z" id="path1553"/><path class="st1" id="polygon1555" d="m49.74 109.32-.03-.03.05.05z"/><path class="st1" id="polygon1557" d="m49.77 109.35-.01-.01z"/><path class="st1" id="polygon1559" d="m53.2 98.44-.02.02.01-.01z"/><path class="st1" id="polygon1561" d="m53.61 98.04-.05.04h.01z"/><path class="st1" d="M120.04 71.65c-.4-2.31-1.13-4.51-2.23-6.5l-.26-.45c-.17.35-.52.73-.74.74-.45 0-.98-.39-1.33-.75-.29-.31-.38-.82-.56-1.24-.29 0-.58.01-.88.01l-.33.16c-.67.64-1.34 1.29-2.01 1.93l-.38.42-.4.4-.4.36-.42.43-.37.36-.39.43c1.44 1.74 2.86 3.5 4.38 5.16.1.11 1.45-.49 1.52-.89.25-1.36.92-1.37 1.95-1.04.06.47.1.86.15 1.24.65 4.73.58 4.8-4.06 4.63l-.76.06c-.79.13-1.58.27-2.38.4l-.72.76c.04.39.06.78.09 1.16.03.39.08.77.16 1.15.2.87.55 1.71.84 2.56.4-.03.8-.07 1.2-.1l5.91-.36c1.93-3.37 3.12-6.96 2.42-11.03" id="path1563"/><path class="st1" d="M110.52 58.85c1.05 0 2.04-.02 3-.02l-.56-.71c-.85-1.03-1.72-2.03-2.59-3.05l-.21 1.39c0 .27 0 .53-.01.8l.18.82c.08.27.13.53.19.77" id="path1565"/><path class="st1" d="m44.5 49.66-.02-.01.4.45c1.35.58 1.5-.5 1.87-1.33.38-.86.64-1.89 1.28-2.51 4.43-4.31 8.92-8.56 13.43-12.78 1.58-1.47 2.18-3.3 1.19-4.68-.55-.77-1.12-1.54-1.68-2.31-1.4 1.04-2.76 2.11-4.07 3.25-.02.56-.48 1.52-.92 1.95-1.88 1.83-3.97 3.45-5.87 5.26-.97.92-1.71 2.08-2.76 3.39l-.17-.56a84.638 84.638 0 0 0-3.41 4.16l.18 3.86c.03.62.36 1.24.55 1.86" id="path1567"/><path d="m112.52 77.11.76-.06c4.64.17 4.71.1 4.06-4.63-.05-.39-.1-.78-.15-1.24-1.04-.33-1.71-.32-1.95 1.04-.07.4-1.42 1-1.52.89-1.53-1.66-2.94-3.42-4.38-5.16l.39-.43.37-.36.42-.43.4-.36.4-.4.38-.42c.67-.64 1.34-1.29 2.01-1.93l.33-.16c.29 0 .58-.01.88-.01.18.42.26.93.56 1.24.35.36.88.75 1.33.75.22 0 .58-.38.74-.74-.41-.73-.85-1.44-1.31-2.14-.73-1.12-1.51-2.21-2.33-3.26l-.37-.47c-.96 0-1.95.02-3 .02-.06-.24-.11-.5-.17-.77-.06-.27-.12-.54-.18-.82 0-.27 0-.53.01-.8l.21-1.39c-.63-.74-1.24-1.5-1.89-2.23l-.01.08c-.1.53-.19 1.06-.29 1.59l-.12 1.18c-.23 2.51-.46 5.01-.68 7.52-.01 1.05-.03 2.1-.04 3.14 0 .4.01.8.01 1.19l.03 1.56.36 6.74.05.37.14.03.14.03c.04.39.07.77.11 1.16-.03.52-.05 1.04-.08 1.56l.08.78 1.05 5.18.13.77c.09.68.17 1.36.26 2.03-.02.39-.05.77-.08 1.16l.2-.03-.12.79.18 1.19-.12.8c.01.54.02 1.08.04 1.62.58-.63 1.15-1.28 1.71-1.93 2.17-2.56 4.16-5.26 5.89-8.14l.02-.03.29-.52-5.91.36c-.4.03-.8.07-1.2.1-.29-.85-.64-1.69-.84-2.56-.09-.38-.13-.76-.16-1.15-.03-.39-.05-.78-.09-1.16l.72-.76c.75-.11 1.54-.25 2.33-.38" id="path1667" style="fill:#a75248"/><path class="st3" d="M80.74 55.14c.76 1.13 1.32 2.29 1.72 3.45.27.16.54.32.81.49.28.17.53.41.84.5.78.22 1.57.38 2.36.57-.39-.68-.62-1.57-1.2-2.01-1.65-1.27-3.33-2.5-5.08-3.76.18.25.37.5.55.76" id="path1673"/><path class="st3" d="M86.31 42.63c-.24-.29-.49-.58-.73-.87l-.78.43c.47.44.94.89 1.39 1.34.1-.23.07-.61.12-.9" id="path1675"/><path class="st3" d="M77.15 51.14c1.79-1.48 3.54-2.93 5.28-4.38-.53-.5-1.08-.99-1.64-1.45-1.56 1.29-3.13 2.58-4.69 3.88l-.19.15-.64.58c.27.14.55.27.82.44.38.24.72.51 1.06.78" id="path1677"/><path class="st3" d="M76.65 104.09c1.91-1.79 3.82-3.56 5.72-5.34l.43-.37c.38-.33.76-.65 1.14-.98l.29-.24.53-.47.35-.31.47-.4.37-.37c-.02-.47-.04-.93-.07-1.4-1.72 1.34-3.49 2.56-5.34 3.62-1.2 1.02-2.4 2.02-3.57 3.06-.55.49-1.09 1-1.62 1.52s-1.05 1.04-1.59 1.56c.21.46.3 1.09.66 1.36.6.45 1.22.88 1.85 1.29.63.41 1.27.82 1.9 1.23l.38.23c1.17.84 2.34 1.67 3.5 2.51.54.35 1.08.69 1.63 1.04l.73.58 2.11.15c-.35-.6-.57-1.37-1.08-1.76-2.86-2.19-5.78-4.3-8.79-6.51" id="path1679"/><path class="st3" d="m100.12 76.3-.29-.45-.58-.74c-.19 1.04-.48 2.06-.83 3.05.47-.23 1.07-.27 1.6-.42.04-.47.07-.96.1-1.44" id="path1681"/><path class="st3" d="M92.9 69.75c-1.38-1.14-2.76-2.28-4.15-3.42l-.74.14c.29.7.41 1.57.89 2.08 1.17 1.23 2.39 2.42 3.62 3.6.17-.78.3-1.58.38-2.4" id="path1683"/><path class="st3" d="m88.75 35.45.11.02.64-.54c.29-.22.59-.43.88-.65-.5-.47-1.01-.94-1.52-1.4l-.56.41c-.41.31-.64.87-.96 1.32l1.41.84" id="path1685"/><path class="st3" d="M87.84 31.98c-.52-.46-1.05-.92-1.58-1.37l-.26.3-.13.33c-.38.76-.77 1.52-1.15 2.28.53.07 1.06.13 1.59.2.5-.58 1.01-1.16 1.53-1.74" id="path1687"/><path class="st3" d="M83.57 103.12c1.49-1.28 3.05-2.49 4.44-3.87.74-.72 2.35-1.04 1.64-2.69-.93.42-1.86.85-2.79 1.28l-.3.22-.55.46H86h.03c-1.33 1.15-2.61 2.35-4 3.42-.92.71-1.13 1.38-.36 2.26 2.1 2.39 4.21 4.77 6.31 7.16.33-.02.66-.05.99-.08l.01-.01c-.13-.58-.1-1.28-.42-1.72-1.58-2.14-3.26-4.22-4.99-6.43" id="path1689"/><path class="st3" d="M89.57 45.8c.09-.5.17-1 .26-1.51-.69.19-1.53.19-2.04.6l-.17.15c.42.46.84.93 1.25 1.41l.28-.26z" id="path1691"/><path class="st3" d="M80.88 50.72c1.87 2.28 3.74 4.6 5.67 6.87.5.58 1.2.99 1.8 1.48.29-.34.59-.68.88-1.02l-5.68-7.22c.52-.43 1.06-.88 1.59-1.32-.42-.46-.85-.91-1.29-1.35-1 .87-2 1.73-2.97 2.56" id="path1693"/><path class="st3" d="M86.58 82.45c2.39-2.33 4.21-5.01 5.3-8.08-1.01-.95-2.06-1.87-3.12-2.77-1.07-.91-2.16-1.81-3.23-2.72l-.74-.25-.39.06-.43.45c.47.68.83 1.47 1.42 2.02 1.63 1.5 3.35 2.91 5.15 4.44a779.98 779.98 0 0 1-3.34 3.52l-.78 1.11-.36.47.02-.01c-.43.9-.86 1.8-1.3 2.7l.58.15c.42-.35.83-.71 1.22-1.09" id="path1695"/><path class="st3" d="m89.61 103.93 4.81-5.13-.23-.75c-.74.34-1.59.54-2.2 1.03-1.22 1-2.24 2.24-3.45 3.24-.93.77-.98 1.48-.2 2.28 1.28 1.31 2.56 2.63 3.93 3.84.44.4 1.16.49 1.75.72-.25-.63-.35-1.4-.78-1.86-1.13-1.19-2.42-2.26-3.63-3.37" id="path1697"/><path class="st3" d="M93.69 47.67c.36-.37.34-1.11.5-1.68-.58.12-1.25.09-1.7.4-.75.5-1.35 1.22-2.02 1.84l-.01-.02-.07.08c.37.47.74.94 1.1 1.42.78-.69 1.52-1.34 2.2-2.04" id="path1699"/><path class="st3" d="M81.64 31.22c.28-.1.49-.4.73-.62l.36-.28.44-.4h-.01c.29-.38.58-.76.88-1.14-.41-.33-.84-.66-1.26-.97l-.31.29-.35.31c-.56.55-1.19 1.04-1.65 1.65-.33.44-.44 1.06-.65 1.6.61-.14 1.24-.23 1.82-.44" id="path1701"/><path class="st3" d="M81.56 81.31c.57-.57 1.16-1.12 1.74-1.69.58-.56 1.13-1.15 1.61-1.78.55-.72 1.14-2.29.83-2.62-1.48-1.52-3.15-2.85-4.79-4.2-.19.27-.41.53-.62.78l1.13 1.61.56.5.08.07c.34.29.67.58 1.04.9.4.34.84.72 1.35 1.16-1.44 1.31-2.75 2.49-4.05 3.67l-.67.55-.18.74c.41.26.83.51 1.24.77z" id="path1703"/><path class="st3" d="m73.77 46.85.41.49.32.1c1.43-1.21 2.87-2.42 4.31-3.63-.44-.3-.9-.58-1.36-.85l-.14.13-.37.33-.46.39-.43.36-.37.33-.63.52-1.29 1.23z" id="path1705"/><path class="st3" d="m99.7 71.53.46-.05c-.13-.34-.26-.69-.4-1.03l-.04-.03c.02.38 0 .75-.02 1.11" id="path1707"/><path class="st3" d="M92.95 65.83c-.03-.32-.07-.63-.11-.94l-.47-.36.04-.04.04-.04-.49.37c.25.7.31 1.62.79 2.06l.24.2c-.02-.41-.01-.82-.04-1.25" id="path1709"/><path class="st3" id="polygon1711" d="m91.96 64.81-.03.02.03-.01z"/><path class="st3" id="polygon1713" d="m92.84 36.63-.44-.43-.07.09z"/><path class="st3" d="m75.35 29.69.59.61.16.07.07.16.66.09c.55-.61 1.1-1.22 1.65-1.82l1.2-1.2.36-.46.43-.73-.02-.22c-1.16-.75-2.37-1.43-3.65-2.01-.31-.14-.63-.26-.95-.39.45 1.2 2.08 1.56 2.58 2.73-.88.96-1.75 1.91-2.61 2.86z" id="path1715"/><path class="st3" d="M95.42 103.95c1.12-1.07 2.06-1.96 3-2.85l.04-.64c-2.41-1.12-2.63 2.05-4.37 2.31-.1.02-.23 1.12-.05 1.59.23.58.79 1.02 1.2 1.52.41.5.81 1 1.21 1.5.39-.41.78-.83 1.17-1.25l-.12-.15c-.59-.75-1.36-1.35-2.08-2.03" id="path1717"/><path class="st3" d="m80.07 75.06-.45-.3-.75-.48-.01-.01-.44-.34-.25-.25c-.45.29-.92.55-1.43.78l.61.62c.86.68 1.17 1.19.35 2.03-.63.65-1.27 1.3-1.91 1.95l-.06.75.37.4c.63-.34 1.27-.68 1.91-1.02l.1-.17.33-.44h-.01c.67-1.04 1.33-2.07 2-3.11z" id="path1719"/><path class="st3" d="M94.15 52.31c.84.97 1.63 1.98 2.44 2.97l.15.24 1.32-.36c-.2-.51-.27-1.16-.63-1.49-.7-.65-1.57-1.11-2.14-1.5 1.02-2.11 3.87-2.22 2.8-4.73l-.24-.04-.23.02-.55.35c-.85.79-1.63 1.68-2.57 2.33-1 .69-1.13 1.31-.35 2.21" id="path1721"/><path class="st3" d="m76.09 114.63-.39-.39-.43-.39c-.32-.38-.63-.76-.95-1.14l-.12.01-.04-.05-.04-.05c-.34.16-.69.31-1.04.46.04.29.1.55.19.79.26.73.71 1.29 1.24 1.78.71.65 1.59 1.15 2.37 1.74l.74-.42.08-.77-1.2-1.17z" id="path1723"/><path class="st3" d="M98.17 89.11c1.02-.79 1.86-1.81 2.77-2.74l-.09-.96-.28-.28c-.32-.04-.65-.08-.97-.11l-.93 1.14c-.77 1.03-1.54 2.07-2.32 3.1.62-.03 1.41.16 1.82-.15" id="path1725"/><path class="st3" id="polygon1727" d="M96.34 89.26h-.01z"/><path class="st3" d="m72.59 26.96-.27.62c.44.37 1.15 1.14 1.26 1.06.76-.53 1.46-1.2 2.01-1.95.1-.14-.44-1.01-.86-1.23-.64-.34-1.42-.42-2.15-.6-.02.38-.05.77-.07 1.15l.09.06-.01.11z" id="path1729"/><path class="st3" id="polygon1731" d="m74.54 41.66-.33-.11.05.04z"/><path class="st3" d="M99.83 53.76c.57-.18 1.63-.35 1.64-.54.02-1.07-.2-2.15-.39-3.21-.01-.05-.6-.07-.89.01-2.06.55-2.25 1.35-.79 3.29z" id="path1733"/><path class="st3" d="m99.22 66.32.98-1.13c-.25-.38-.49-.76-.74-1.14-.28-.17-.55-.34-.82-.51.24.91.42 1.84.58 2.78" id="path1735"/><path class="st3" id="polygon1737" d="m99.44 64.01.02.04.05.02z"/><path class="st3" d="M98.72 91.33c1.17-.12 1.73-.17 2.29-.23l.67-.27c-.57-.66-1.15-1.31-1.72-1.97-.36.71-.71 1.42-1.24 2.47" id="path1739"/><path class="st3" d="m72.52 89.49.49-.08c.56-.11 1.12-.25 1.67-.39-.73-.79-1.42.12-2.13.35z" id="path1741"/><path class="st3" d="M98.26 103.77c.24.26.48.58.72.9.54-.57 1.07-1.15 1.61-1.71l.47-.5-.26-.25c-.88.45-1.7 1.02-2.54 1.56" id="path1743"/><path class="st3" d="M73.95 78.53c.3-.34.69-.63.87-1.03.28-.61.71-1.79.57-1.87l-.66-.48c-.74.21-1.48.38-2.23.51l.02.19c-.11.47-.21.93-.32 1.39l.5.37c.42.31.83.62 1.25.92" id="path1745"/><path class="st3" d="m98.46 83.33.52-.41h-.01c.53-.53 1.06-1.06 1.6-1.59-.26-.51-.52-1.03-.74-1.46-1.19.89-2.31 1.72-3.39 2.53-.26.44-.51.88-.8 1.31-.66.99-1.36 1.95-2.09 2.88.55-.24 1.11-.48 1.66-.71.88-.69 1.77-1.38 2.65-2.08z" id="path1747"/><path class="st3" d="m79.13 111.12-.35-.25-1.98-1.35-.38-.22c-.88-.58-1.75-1.16-2.62-1.75l.01-.05-.46.64.08.05-.05.09-.01.41.08.11-.05.12c.54.51 1.07 1.02 1.61 1.53l.7.62.43.36-.02-.02.02.02.47.36-.03-.04c.73.56 1.47 1.13 2.21 1.69l.88.85.41.32c.39.07.79.15 1.18.22-.16-.69-.19-1.45-.53-2.04-.39-.63-1.06-1.11-1.6-1.67" id="path1749"/><path class="st3" id="polygon1751" d="m76.12 111.44.02.01h-.01z"/><path class="st3" d="M101.3 62.49c.15-.26-.78-1.12-1.23-1.72-1.39 1.14-1.28 2.16-.61 3.22.65-.48 1.48-.86 1.84-1.5" id="path1753"/><path class="st3" id="polygon1755" d="m99.44 64.01.07.06-.05-.08z"/><path class="st3" d="m74.11 116.63-.48-.06-.1.01-.58.08-.5.74-.4.61.08.1.05.06-.02.02c.81.3 1.62.59 2.83 1.04-.21-1.21-.08-2.32-.88-2.6" id="path1757"/></g></svg>